<?xml version="1.0" encoding="UTF-8" standalone="no"?>
<!DOCTYPE svg PUBLIC "-//W3C//DTD SVG 1.1//EN"
 "http://www.w3.org/Graphics/SVG/1.1/DTD/svg11.dtd">
<!-- Generated by graphviz version 2.47.0 (20210316.0004)
 -->
<!-- Title: dependencies Pages: 1 -->
<svg width="957pt" height="211pt"
 viewBox="0.00 0.00 957.00 211.00" xmlns="http://www.w3.org/2000/svg" xmlns:xlink="http://www.w3.org/1999/xlink">
<g id="graph0" class="graph" transform="scale(1 1) rotate(0) translate(4 207)">
<title>dependencies</title>
<polygon fill="white" stroke="transparent" points="-4,4 -4,-207 953,-207 953,4 -4,4"/>
<text text-anchor="start" x="453.51" y="-42.4" font-family="sans-serif" font-weight="bold" font-size="14.00">Legend</text>
<polygon fill="#ffffb3" stroke="transparent" points="240.5,-10 240.5,-30 260.5,-30 260.5,-10 240.5,-10"/>
<text text-anchor="start" x="264.13" y="-15.4" font-family="sans-serif" font-size="14.00"> &#160;Declarations</text>
<polygon fill="#8dd3c7" stroke="transparent" points="353.5,-10 353.5,-30 373.5,-30 373.5,-10 353.5,-10"/>
<text text-anchor="start" x="377.23" y="-15.4" font-family="sans-serif" font-size="14.00"> &#160;Module</text>
<polygon fill="#80b1d3" stroke="transparent" points="439.5,-10 439.5,-30 459.5,-30 459.5,-10 439.5,-10"/>
<text text-anchor="start" x="463.28" y="-15.4" font-family="sans-serif" font-size="14.00"> &#160;Bootstrap</text>
<polygon fill="#fdb462" stroke="transparent" points="536.5,-10 536.5,-30 556.5,-30 556.5,-10 536.5,-10"/>
<text text-anchor="start" x="560.17" y="-15.4" font-family="sans-serif" font-size="14.00"> &#160;Providers</text>
<polygon fill="#fb8072" stroke="transparent" points="632.5,-10 632.5,-30 652.5,-30 652.5,-10 632.5,-10"/>
<text text-anchor="start" x="656.23" y="-15.4" font-family="sans-serif" font-size="14.00"> &#160;Exports</text>
<g id="clust1" class="cluster">
<title>cluster_InformationModule</title>
<polygon fill="none" stroke="black" stroke-dasharray="1,5" points="8,-70 8,-195 941,-195 941,-70 8,-70"/>
</g>
<g id="clust7" class="cluster">
<title>cluster_InformationModule_imports</title>
<polygon fill="none" stroke="black" points="629,-78 629,-130 933,-130 933,-78 629,-78"/>
</g>
<g id="clust2" class="cluster">
<title>cluster_InformationModule_declarations</title>
<polygon fill="none" stroke="black" points="16,-78 16,-130 621,-130 621,-78 16,-78"/>
</g>
<!-- FaqComponent -->
<g id="node1" class="node">
<title>FaqComponent</title>
<polygon fill="#ffffb3" stroke="black" points="613.33,-122 510.67,-122 510.67,-86 613.33,-86 613.33,-122"/>
<text text-anchor="middle" x="562" y="-99.8" font-family="Times,serif" font-size="14.00">FaqComponent</text>
</g>
<!-- InformationModule -->
<g id="node5" class="node">
<title>InformationModule</title>
<polygon fill="#8dd3c7" stroke="black" points="554.42,-187 551.42,-191 530.42,-191 527.42,-187 427.58,-187 427.58,-151 554.42,-151 554.42,-187"/>
<text text-anchor="middle" x="491" y="-164.8" font-family="Times,serif" font-size="14.00">InformationModule</text>
</g>
<!-- FaqComponent&#45;&gt;InformationModule -->
<g id="edge1" class="edge">
<title>FaqComponent&#45;&gt;InformationModule</title>
<path fill="none" stroke="black" d="M532.52,-122.11C532.52,-122.11 532.52,-140.99 532.52,-140.99"/>
<polygon fill="black" stroke="black" points="529.02,-140.99 532.52,-150.99 536.02,-140.99 529.02,-140.99"/>
</g>
<!-- FrameworkComponent -->
<g id="node2" class="node">
<title>FrameworkComponent</title>
<polygon fill="#ffffb3" stroke="black" points="492.86,-122 347.14,-122 347.14,-86 492.86,-86 492.86,-122"/>
<text text-anchor="middle" x="420" y="-99.8" font-family="Times,serif" font-size="14.00">FrameworkComponent</text>
</g>
<!-- FrameworkComponent&#45;&gt;InformationModule -->
<g id="edge2" class="edge">
<title>FrameworkComponent&#45;&gt;InformationModule</title>
<path fill="none" stroke="black" d="M460.36,-122.11C460.36,-122.11 460.36,-140.99 460.36,-140.99"/>
<polygon fill="black" stroke="black" points="456.86,-140.99 460.36,-150.99 463.86,-140.99 456.86,-140.99"/>
</g>
<!-- InformationComponent -->
<g id="node3" class="node">
<title>InformationComponent</title>
<polygon fill="#ffffb3" stroke="black" points="329.2,-122 180.8,-122 180.8,-86 329.2,-86 329.2,-122"/>
<text text-anchor="middle" x="255" y="-99.8" font-family="Times,serif" font-size="14.00">InformationComponent</text>
</g>
<!-- InformationComponent&#45;&gt;InformationModule -->
<g id="edge3" class="edge">
<title>InformationComponent&#45;&gt;InformationModule</title>
<path fill="none" stroke="black" d="M255,-122.02C255,-139.37 255,-163 255,-163 255,-163 417.76,-163 417.76,-163"/>
<polygon fill="black" stroke="black" points="417.76,-166.5 427.76,-163 417.76,-159.5 417.76,-166.5"/>
</g>
<!-- ResourcesComponent -->
<g id="node4" class="node">
<title>ResourcesComponent</title>
<polygon fill="#ffffb3" stroke="black" points="162.36,-122 23.64,-122 23.64,-86 162.36,-86 162.36,-122"/>
<text text-anchor="middle" x="93" y="-99.8" font-family="Times,serif" font-size="14.00">ResourcesComponent</text>
</g>
<!-- ResourcesComponent&#45;&gt;InformationModule -->
<g id="edge4" class="edge">
<title>ResourcesComponent&#45;&gt;InformationModule</title>
<path fill="none" stroke="black" d="M93,-122.28C93,-143.32 93,-175 93,-175 93,-175 417.5,-175 417.5,-175"/>
<polygon fill="black" stroke="black" points="417.5,-178.5 427.5,-175 417.5,-171.5 417.5,-178.5"/>
</g>
<!-- InformationRoutingModule -->
<g id="node6" class="node">
<title>InformationRoutingModule</title>
<polygon fill="#8dd3c7" stroke="black" points="924.54,-122 921.54,-126 900.54,-126 897.54,-122 753.46,-122 753.46,-86 924.54,-86 924.54,-122"/>
<text text-anchor="middle" x="839" y="-99.8" font-family="Times,serif" font-size="14.00">InformationRoutingModule</text>
</g>
<!-- InformationRoutingModule&#45;&gt;InformationModule -->
<g id="edge5" class="edge">
<title>InformationRoutingModule&#45;&gt;InformationModule</title>
<path fill="none" stroke="black" d="M839,-122.28C839,-143.32 839,-175 839,-175 839,-175 564.42,-175 564.42,-175"/>
<polygon fill="black" stroke="black" points="564.42,-171.5 554.42,-175 564.42,-178.5 564.42,-171.5"/>
</g>
<!-- SharedModule -->
<g id="node7" class="node">
<title>SharedModule</title>
<polygon fill="#8dd3c7" stroke="black" points="735.42,-122 732.42,-126 711.42,-126 708.42,-122 636.58,-122 636.58,-86 735.42,-86 735.42,-122"/>
<text text-anchor="middle" x="686" y="-99.8" font-family="Times,serif" font-size="14.00">SharedModule</text>
</g>
<!-- SharedModule&#45;&gt;InformationModule -->
<g id="edge6" class="edge">
<title>SharedModule&#45;&gt;InformationModule</title>
<path fill="none" stroke="black" d="M686,-122.02C686,-139.37 686,-163 686,-163 686,-163 564.31,-163 564.31,-163"/>
<polygon fill="black" stroke="black" points="564.31,-159.5 554.31,-163 564.31,-166.5 564.31,-159.5"/>
</g>
</g>
</svg>
