<?xml version="1.0" encoding="UTF-8" standalone="no"?>
<!DOCTYPE svg PUBLIC "-//W3C//DTD SVG 1.1//EN"
 "http://www.w3.org/Graphics/SVG/1.1/DTD/svg11.dtd">
<!-- Generated by graphviz version 2.47.0 (20210316.0004)
 -->
<!-- Title: dependencies Pages: 1 -->
<svg width="957pt" height="211pt"
 viewBox="0.00 0.00 957.00 211.00" xmlns="http://www.w3.org/2000/svg" xmlns:xlink="http://www.w3.org/1999/xlink">
<g id="graph0" class="graph" transform="scale(1 1) rotate(0) translate(4 207)">
<title>dependencies</title>
<polygon fill="white" stroke="transparent" points="-4,4 -4,-207 953,-207 953,4 -4,4"/>
<text text-anchor="start" x="453.51" y="-42.4" font-family="sans-serif" font-weight="bold" font-size="14.00">Legend</text>
<polygon fill="#ffffb3" stroke="transparent" points="240.5,-10 240.5,-30 260.5,-30 260.5,-10 240.5,-10"/>
<text text-anchor="start" x="264.13" y="-15.4" font-family="sans-serif" font-size="14.00"> &#160;Declarations</text>
<polygon fill="#8dd3c7" stroke="transparent" points="353.5,-10 353.5,-30 373.5,-30 373.5,-10 353.5,-10"/>
<text text-anchor="start" x="377.23" y="-15.4" font-family="sans-serif" font-size="14.00"> &#160;Module</text>
<polygon fill="#80b1d3" stroke="transparent" points="439.5,-10 439.5,-30 459.5,-30 459.5,-10 439.5,-10"/>
<text text-anchor="start" x="463.28" y="-15.4" font-family="sans-serif" font-size="14.00"> &#160;Bootstrap</text>
<polygon fill="#fdb462" stroke="transparent" points="536.5,-10 536.5,-30 556.5,-30 556.5,-10 536.5,-10"/>
<text text-anchor="start" x="560.17" y="-15.4" font-family="sans-serif" font-size="14.00"> &#160;Providers</text>
<polygon fill="#fb8072" stroke="transparent" points="632.5,-10 632.5,-30 652.5,-30 652.5,-10 632.5,-10"/>
<text text-anchor="start" x="656.23" y="-15.4" font-family="sans-serif" font-size="14.00"> &#160;Exports</text>
<g id="clust1" class="cluster">
<title>cluster_InformationModule</title>
<polygon fill="none" stroke="black" stroke-dasharray="1,5" points="8,-70 8,-195 941,-195 941,-70 8,-70"/>
</g>
<g id="clust2" class="cluster">
<title>cluster_InformationModule_declarations</title>
<polygon fill="none" stroke="black" points="328,-78 328,-130 933,-130 933,-78 328,-78"/>
</g>
<g id="clust7" class="cluster">
<title>cluster_InformationModule_imports</title>
<polygon fill="none" stroke="black" points="16,-78 16,-130 320,-130 320,-78 16,-78"/>
</g>
<!-- FaqComponent -->
<g id="node1" class="node">
<title>FaqComponent</title>
<polygon fill="#ffffb3" stroke="black" points="925.33,-122 822.67,-122 822.67,-86 925.33,-86 925.33,-122"/>
<text text-anchor="middle" x="874" y="-99.8" font-family="Times,serif" font-size="14.00">FaqComponent</text>
</g>
<!-- InformationModule -->
<g id="node5" class="node">
<title>InformationModule</title>
<polygon fill="#8dd3c7" stroke="black" points="549.42,-187 546.42,-191 525.42,-191 522.42,-187 422.58,-187 422.58,-151 549.42,-151 549.42,-187"/>
<text text-anchor="middle" x="486" y="-164.8" font-family="Times,serif" font-size="14.00">InformationModule</text>
</g>
<!-- FaqComponent&#45;&gt;InformationModule -->
<g id="edge1" class="edge">
<title>FaqComponent&#45;&gt;InformationModule</title>
<path fill="none" stroke="black" d="M874,-122.28C874,-143.32 874,-175 874,-175 874,-175 559.64,-175 559.64,-175"/>
<polygon fill="black" stroke="black" points="559.64,-171.5 549.64,-175 559.64,-178.5 559.64,-171.5"/>
</g>
<!-- FrameworkComponent -->
<g id="node2" class="node">
<title>FrameworkComponent</title>
<polygon fill="#ffffb3" stroke="black" points="804.86,-122 659.14,-122 659.14,-86 804.86,-86 804.86,-122"/>
<text text-anchor="middle" x="732" y="-99.8" font-family="Times,serif" font-size="14.00">FrameworkComponent</text>
</g>
<!-- FrameworkComponent&#45;&gt;InformationModule -->
<g id="edge2" class="edge">
<title>FrameworkComponent&#45;&gt;InformationModule</title>
<path fill="none" stroke="black" d="M732,-122.02C732,-139.37 732,-163 732,-163 732,-163 559.35,-163 559.35,-163"/>
<polygon fill="black" stroke="black" points="559.35,-159.5 549.35,-163 559.35,-166.5 559.35,-159.5"/>
</g>
<!-- InformationComponent -->
<g id="node3" class="node">
<title>InformationComponent</title>
<polygon fill="#ffffb3" stroke="black" points="641.2,-122 492.8,-122 492.8,-86 641.2,-86 641.2,-122"/>
<text text-anchor="middle" x="567" y="-99.8" font-family="Times,serif" font-size="14.00">InformationComponent</text>
</g>
<!-- InformationComponent&#45;&gt;InformationModule -->
<g id="edge3" class="edge">
<title>InformationComponent&#45;&gt;InformationModule</title>
<path fill="none" stroke="black" d="M521.05,-122.11C521.05,-122.11 521.05,-140.99 521.05,-140.99"/>
<polygon fill="black" stroke="black" points="517.55,-140.99 521.05,-150.99 524.55,-140.99 517.55,-140.99"/>
</g>
<!-- ResourcesComponent -->
<g id="node4" class="node">
<title>ResourcesComponent</title>
<polygon fill="#ffffb3" stroke="black" points="474.36,-122 335.64,-122 335.64,-86 474.36,-86 474.36,-122"/>
<text text-anchor="middle" x="405" y="-99.8" font-family="Times,serif" font-size="14.00">ResourcesComponent</text>
</g>
<!-- ResourcesComponent&#45;&gt;InformationModule -->
<g id="edge4" class="edge">
<title>ResourcesComponent&#45;&gt;InformationModule</title>
<path fill="none" stroke="black" d="M448.61,-122.11C448.61,-122.11 448.61,-140.99 448.61,-140.99"/>
<polygon fill="black" stroke="black" points="445.11,-140.99 448.61,-150.99 452.11,-140.99 445.11,-140.99"/>
</g>
<!-- InformationRoutingModule -->
<g id="node6" class="node">
<title>InformationRoutingModule</title>
<polygon fill="#8dd3c7" stroke="black" points="311.54,-122 308.54,-126 287.54,-126 284.54,-122 140.46,-122 140.46,-86 311.54,-86 311.54,-122"/>
<text text-anchor="middle" x="226" y="-99.8" font-family="Times,serif" font-size="14.00">InformationRoutingModule</text>
</g>
<!-- InformationRoutingModule&#45;&gt;InformationModule -->
<g id="edge5" class="edge">
<title>InformationRoutingModule&#45;&gt;InformationModule</title>
<path fill="none" stroke="black" d="M226,-122.02C226,-139.37 226,-163 226,-163 226,-163 412.73,-163 412.73,-163"/>
<polygon fill="black" stroke="black" points="412.73,-166.5 422.73,-163 412.73,-159.5 412.73,-166.5"/>
</g>
<!-- SharedModule -->
<g id="node7" class="node">
<title>SharedModule</title>
<polygon fill="#8dd3c7" stroke="black" points="122.42,-122 119.42,-126 98.42,-126 95.42,-122 23.58,-122 23.58,-86 122.42,-86 122.42,-122"/>
<text text-anchor="middle" x="73" y="-99.8" font-family="Times,serif" font-size="14.00">SharedModule</text>
</g>
<!-- SharedModule&#45;&gt;InformationModule -->
<g id="edge6" class="edge">
<title>SharedModule&#45;&gt;InformationModule</title>
<path fill="none" stroke="black" d="M73,-122.28C73,-143.32 73,-175 73,-175 73,-175 412.37,-175 412.37,-175"/>
<polygon fill="black" stroke="black" points="412.37,-178.5 422.37,-175 412.37,-171.5 412.37,-178.5"/>
</g>
</g>
</svg>
