<?xml version="1.0" encoding="UTF-8" standalone="no"?>
<!DOCTYPE svg PUBLIC "-//W3C//DTD SVG 1.1//EN"
 "http://www.w3.org/Graphics/SVG/1.1/DTD/svg11.dtd">
<!-- Generated by graphviz version 2.47.3 (20210619.1520)
 -->
<!-- Title: dependencies Pages: 1 -->
<svg width="957pt" height="174pt"
 viewBox="0.00 0.00 957.00 173.80" xmlns="http://www.w3.org/2000/svg" xmlns:xlink="http://www.w3.org/1999/xlink">
<g id="graph0" class="graph" transform="scale(1 1) rotate(0) translate(4 169.8)">
<title>dependencies</title>
<polygon fill="white" stroke="transparent" points="-4,4 -4,-169.8 953,-169.8 953,4 -4,4"/>
<text text-anchor="middle" x="474.5" y="-8.2" font-family="sans-serif" font-size="14.00">dependencies</text>
<g id="clust1" class="cluster">
<title>cluster_InformationModule</title>
<polygon fill="none" stroke="black" stroke-dasharray="1,5" points="8,-32.8 8,-157.8 941,-157.8 941,-32.8 8,-32.8"/>
</g>
<g id="clust7" class="cluster">
<title>cluster_InformationModule_imports</title>
<polygon fill="none" stroke="black" points="629,-40.8 629,-92.8 933,-92.8 933,-40.8 629,-40.8"/>
</g>
<g id="clust2" class="cluster">
<title>cluster_InformationModule_declarations</title>
<polygon fill="none" stroke="black" points="16,-40.8 16,-92.8 621,-92.8 621,-40.8 16,-40.8"/>
</g>
<!-- FaqComponent -->
<g id="node1" class="node">
<title>FaqComponent</title>
<polygon fill="#ffffb3" stroke="black" points="613.33,-84.8 510.67,-84.8 510.67,-48.8 613.33,-48.8 613.33,-84.8"/>
<text text-anchor="middle" x="562" y="-62.6" font-family="Times,serif" font-size="14.00">FaqComponent</text>
</g>
<!-- InformationModule -->
<g id="node5" class="node">
<title>InformationModule</title>
<polygon fill="#8dd3c7" stroke="black" points="554.42,-149.8 551.42,-153.8 530.42,-153.8 527.42,-149.8 427.58,-149.8 427.58,-113.8 554.42,-113.8 554.42,-149.8"/>
<text text-anchor="middle" x="491" y="-127.6" font-family="Times,serif" font-size="14.00">InformationModule</text>
</g>
<!-- FaqComponent&#45;&gt;InformationModule -->
<g id="edge1" class="edge">
<title>FaqComponent&#45;&gt;InformationModule</title>
<path fill="none" stroke="black" d="M532.52,-84.91C532.52,-84.91 532.52,-103.79 532.52,-103.79"/>
<polygon fill="black" stroke="black" points="529.02,-103.79 532.52,-113.79 536.02,-103.79 529.02,-103.79"/>
</g>
<!-- FrameworkComponent -->
<g id="node2" class="node">
<title>FrameworkComponent</title>
<polygon fill="#ffffb3" stroke="black" points="492.86,-84.8 347.14,-84.8 347.14,-48.8 492.86,-48.8 492.86,-84.8"/>
<text text-anchor="middle" x="420" y="-62.6" font-family="Times,serif" font-size="14.00">FrameworkComponent</text>
</g>
<!-- FrameworkComponent&#45;&gt;InformationModule -->
<g id="edge2" class="edge">
<title>FrameworkComponent&#45;&gt;InformationModule</title>
<path fill="none" stroke="black" d="M460.36,-84.91C460.36,-84.91 460.36,-103.79 460.36,-103.79"/>
<polygon fill="black" stroke="black" points="456.86,-103.79 460.36,-113.79 463.86,-103.79 456.86,-103.79"/>
</g>
<!-- InformationComponent -->
<g id="node3" class="node">
<title>InformationComponent</title>
<polygon fill="#ffffb3" stroke="black" points="329.2,-84.8 180.8,-84.8 180.8,-48.8 329.2,-48.8 329.2,-84.8"/>
<text text-anchor="middle" x="255" y="-62.6" font-family="Times,serif" font-size="14.00">InformationComponent</text>
</g>
<!-- InformationComponent&#45;&gt;InformationModule -->
<g id="edge3" class="edge">
<title>InformationComponent&#45;&gt;InformationModule</title>
<path fill="none" stroke="black" d="M255,-84.82C255,-102.17 255,-125.8 255,-125.8 255,-125.8 417.76,-125.8 417.76,-125.8"/>
<polygon fill="black" stroke="black" points="417.76,-129.3 427.76,-125.8 417.76,-122.3 417.76,-129.3"/>
</g>
<!-- ResourcesComponent -->
<g id="node4" class="node">
<title>ResourcesComponent</title>
<polygon fill="#ffffb3" stroke="black" points="162.36,-84.8 23.64,-84.8 23.64,-48.8 162.36,-48.8 162.36,-84.8"/>
<text text-anchor="middle" x="93" y="-62.6" font-family="Times,serif" font-size="14.00">ResourcesComponent</text>
</g>
<!-- ResourcesComponent&#45;&gt;InformationModule -->
<g id="edge4" class="edge">
<title>ResourcesComponent&#45;&gt;InformationModule</title>
<path fill="none" stroke="black" d="M93,-85.08C93,-106.12 93,-137.8 93,-137.8 93,-137.8 417.5,-137.8 417.5,-137.8"/>
<polygon fill="black" stroke="black" points="417.5,-141.3 427.5,-137.8 417.5,-134.3 417.5,-141.3"/>
</g>
<!-- InformationRoutingModule -->
<g id="node6" class="node">
<title>InformationRoutingModule</title>
<polygon fill="#8dd3c7" stroke="black" points="924.54,-84.8 921.54,-88.8 900.54,-88.8 897.54,-84.8 753.46,-84.8 753.46,-48.8 924.54,-48.8 924.54,-84.8"/>
<text text-anchor="middle" x="839" y="-62.6" font-family="Times,serif" font-size="14.00">InformationRoutingModule</text>
</g>
<!-- InformationRoutingModule&#45;&gt;InformationModule -->
<g id="edge5" class="edge">
<title>InformationRoutingModule&#45;&gt;InformationModule</title>
<path fill="none" stroke="black" d="M839,-85.08C839,-106.12 839,-137.8 839,-137.8 839,-137.8 564.42,-137.8 564.42,-137.8"/>
<polygon fill="black" stroke="black" points="564.42,-134.3 554.42,-137.8 564.42,-141.3 564.42,-134.3"/>
</g>
<!-- SharedModule -->
<g id="node7" class="node">
<title>SharedModule</title>
<polygon fill="#8dd3c7" stroke="black" points="735.42,-84.8 732.42,-88.8 711.42,-88.8 708.42,-84.8 636.58,-84.8 636.58,-48.8 735.42,-48.8 735.42,-84.8"/>
<text text-anchor="middle" x="686" y="-62.6" font-family="Times,serif" font-size="14.00">SharedModule</text>
</g>
<!-- SharedModule&#45;&gt;InformationModule -->
<g id="edge6" class="edge">
<title>SharedModule&#45;&gt;InformationModule</title>
<path fill="none" stroke="black" d="M686,-84.82C686,-102.17 686,-125.8 686,-125.8 686,-125.8 564.31,-125.8 564.31,-125.8"/>
<polygon fill="black" stroke="black" points="564.31,-122.3 554.31,-125.8 564.31,-129.3 564.31,-122.3"/>
</g>
</g>
</svg>
