<?xml version="1.0" encoding="UTF-8" standalone="no"?>
<!DOCTYPE svg PUBLIC "-//W3C//DTD SVG 1.1//EN"
 "http://www.w3.org/Graphics/SVG/1.1/DTD/svg11.dtd">
<!-- Generated by graphviz version 2.47.3 (20210619.1520)
 -->
<!-- Title: dependencies Pages: 1 -->
<svg width="1672pt" height="247pt"
 viewBox="0.00 0.00 1672.00 246.80" xmlns="http://www.w3.org/2000/svg" xmlns:xlink="http://www.w3.org/1999/xlink">
<g id="graph0" class="graph" transform="scale(1 1) rotate(0) translate(4 242.8)">
<title>dependencies</title>
<polygon fill="white" stroke="transparent" points="-4,4 -4,-242.8 1668,-242.8 1668,4 -4,4"/>
<text text-anchor="middle" x="832" y="-8.2" font-family="sans-serif" font-size="14.00">dependencies</text>
<g id="clust1" class="cluster">
<title>cluster_SharedModule</title>
<polygon fill="none" stroke="black" stroke-dasharray="1,5" points="8,-32.8 8,-230.8 1656,-230.8 1656,-32.8 8,-32.8"/>
</g>
<g id="clust14" class="cluster">
<title>cluster_SharedModule_exports</title>
<polygon fill="none" stroke="black" points="76,-170.8 76,-222.8 1589,-222.8 1589,-170.8 76,-170.8"/>
</g>
<g id="clust2" class="cluster">
<title>cluster_SharedModule_declarations</title>
<polygon fill="none" stroke="black" points="146,-40.8 146,-92.8 1648,-92.8 1648,-40.8 146,-40.8"/>
</g>
<g id="clust13" class="cluster">
<title>cluster_SharedModule_imports</title>
<polygon fill="none" stroke="black" points="16,-40.8 16,-92.8 138,-92.8 138,-40.8 16,-40.8"/>
</g>
<!-- BottomNavComponent -->
<g id="node1" class="node">
<title>BottomNavComponent</title>
<polygon fill="#ffffb3" stroke="black" points="1640.16,-84.8 1493.84,-84.8 1493.84,-48.8 1640.16,-48.8 1640.16,-84.8"/>
<text text-anchor="middle" x="1567" y="-62.6" font-family="Times,serif" font-size="14.00">BottomNavComponent</text>
</g>
<!-- SharedModule -->
<g id="node11" class="node">
<title>SharedModule</title>
<polygon fill="#8dd3c7" stroke="black" points="779.42,-149.8 776.42,-153.8 755.42,-153.8 752.42,-149.8 680.58,-149.8 680.58,-113.8 779.42,-113.8 779.42,-149.8"/>
<text text-anchor="middle" x="730" y="-127.6" font-family="Times,serif" font-size="14.00">SharedModule</text>
</g>
<!-- BottomNavComponent&#45;&gt;SharedModule -->
<g id="edge1" class="edge">
<title>BottomNavComponent&#45;&gt;SharedModule</title>
<path fill="none" stroke="black" d="M1537.38,-84.91C1537.38,-104.14 1537.38,-131.8 1537.38,-131.8 1537.38,-131.8 789.29,-131.8 789.29,-131.8"/>
<polygon fill="black" stroke="black" points="789.29,-128.3 779.29,-131.8 789.29,-135.3 789.29,-128.3"/>
</g>
<!-- ChildGroupingComponent -->
<g id="node2" class="node">
<title>ChildGroupingComponent</title>
<polygon fill="#ffffb3" stroke="black" points="1476.11,-84.8 1309.89,-84.8 1309.89,-48.8 1476.11,-48.8 1476.11,-84.8"/>
<text text-anchor="middle" x="1393" y="-62.6" font-family="Times,serif" font-size="14.00">ChildGroupingComponent</text>
</g>
<!-- ChildGroupingComponent&#45;&gt;SharedModule -->
<g id="edge2" class="edge">
<title>ChildGroupingComponent&#45;&gt;SharedModule</title>
<path fill="none" stroke="black" d="M1361.38,-85.07C1361.38,-103.36 1361.38,-128.8 1361.38,-128.8 1361.38,-128.8 789.28,-128.8 789.28,-128.8"/>
<polygon fill="black" stroke="black" points="789.28,-125.3 779.28,-128.8 789.28,-132.3 789.28,-125.3"/>
</g>
<!-- CriterionComponent -->
<g id="node3" class="node">
<title>CriterionComponent</title>
<polygon fill="#ffffb3" stroke="black" points="1291.88,-84.8 1160.12,-84.8 1160.12,-48.8 1291.88,-48.8 1291.88,-84.8"/>
<text text-anchor="middle" x="1226" y="-62.6" font-family="Times,serif" font-size="14.00">CriterionComponent</text>
</g>
<!-- CriterionComponent&#45;&gt;SharedModule -->
<g id="edge3" class="edge">
<title>CriterionComponent&#45;&gt;SharedModule</title>
<path fill="none" stroke="black" d="M1192.88,-84.83C1192.88,-101.86 1192.88,-124.8 1192.88,-124.8 1192.88,-124.8 789.54,-124.8 789.54,-124.8"/>
<polygon fill="black" stroke="black" points="789.54,-121.3 779.54,-124.8 789.54,-128.3 789.54,-121.3"/>
</g>
<!-- FooterComponent -->
<g id="node4" class="node">
<title>FooterComponent</title>
<polygon fill="#ffffb3" stroke="black" points="1141.88,-84.8 1024.12,-84.8 1024.12,-48.8 1141.88,-48.8 1141.88,-84.8"/>
<text text-anchor="middle" x="1083" y="-62.6" font-family="Times,serif" font-size="14.00">FooterComponent</text>
</g>
<!-- FooterComponent&#45;&gt;SharedModule -->
<g id="edge4" class="edge">
<title>FooterComponent&#45;&gt;SharedModule</title>
<path fill="none" stroke="black" d="M1055.2,-84.81C1055.2,-100.85 1055.2,-121.8 1055.2,-121.8 1055.2,-121.8 789.39,-121.8 789.39,-121.8"/>
<polygon fill="black" stroke="black" points="789.39,-118.3 779.39,-121.8 789.39,-125.3 789.39,-118.3"/>
</g>
<!-- FrameworkRendererComponent -->
<g id="node5" class="node">
<title>FrameworkRendererComponent</title>
<polygon fill="#ffffb3" stroke="black" points="1005.66,-84.8 808.34,-84.8 808.34,-48.8 1005.66,-48.8 1005.66,-84.8"/>
<text text-anchor="middle" x="907" y="-62.6" font-family="Times,serif" font-size="14.00">FrameworkRendererComponent</text>
</g>
<!-- FrameworkRendererComponent&#45;&gt;SharedModule -->
<g id="edge5" class="edge">
<title>FrameworkRendererComponent&#45;&gt;SharedModule</title>
<path fill="none" stroke="black" d="M838.02,-84.92C838.02,-99.58 838.02,-117.8 838.02,-117.8 838.02,-117.8 789.27,-117.8 789.27,-117.8"/>
<polygon fill="black" stroke="black" points="789.27,-114.3 779.27,-117.8 789.27,-121.3 789.27,-114.3"/>
</g>
<!-- HeaderComponent -->
<g id="node6" class="node">
<title>HeaderComponent</title>
<polygon fill="#ffffb3" stroke="black" points="790.74,-84.8 669.26,-84.8 669.26,-48.8 790.74,-48.8 790.74,-84.8"/>
<text text-anchor="middle" x="730" y="-62.6" font-family="Times,serif" font-size="14.00">HeaderComponent</text>
</g>
<!-- HeaderComponent&#45;&gt;SharedModule -->
<g id="edge6" class="edge">
<title>HeaderComponent&#45;&gt;SharedModule</title>
<path fill="none" stroke="black" d="M730,-84.91C730,-84.91 730,-103.79 730,-103.79"/>
<polygon fill="black" stroke="black" points="726.5,-103.79 730,-113.79 733.5,-103.79 726.5,-103.79"/>
</g>
<!-- PageNotFoundComponent -->
<g id="node7" class="node">
<title>PageNotFoundComponent</title>
<polygon fill="#ffffb3" stroke="black" points="650.82,-84.8 485.18,-84.8 485.18,-48.8 650.82,-48.8 650.82,-84.8"/>
<text text-anchor="middle" x="568" y="-62.6" font-family="Times,serif" font-size="14.00">PageNotFoundComponent</text>
</g>
<!-- PageNotFoundComponent&#45;&gt;SharedModule -->
<g id="edge7" class="edge">
<title>PageNotFoundComponent&#45;&gt;SharedModule</title>
<path fill="none" stroke="black" d="M632.21,-84.92C632.21,-99.58 632.21,-117.8 632.21,-117.8 632.21,-117.8 670.53,-117.8 670.53,-117.8"/>
<polygon fill="black" stroke="black" points="670.53,-121.3 680.53,-117.8 670.53,-114.3 670.53,-121.3"/>
</g>
<!-- SetToArrayPipe -->
<g id="node8" class="node">
<title>SetToArrayPipe</title>
<polygon fill="#ffffb3" stroke="black" points="467.47,-84.8 360.53,-84.8 360.53,-48.8 467.47,-48.8 467.47,-84.8"/>
<text text-anchor="middle" x="414" y="-62.6" font-family="Times,serif" font-size="14.00">SetToArrayPipe</text>
</g>
<!-- SetToArrayPipe&#45;&gt;SharedModule -->
<g id="edge8" class="edge">
<title>SetToArrayPipe&#45;&gt;SharedModule</title>
<path fill="none" stroke="black" d="M447.04,-84.81C447.04,-100.85 447.04,-121.8 447.04,-121.8 447.04,-121.8 670.71,-121.8 670.71,-121.8"/>
<polygon fill="black" stroke="black" points="670.71,-125.3 680.71,-121.8 670.71,-118.3 670.71,-125.3"/>
</g>
<!-- TruncatePipe -->
<g id="node9" class="node">
<title>TruncatePipe</title>
<polygon fill="#ffffb3" stroke="black" points="342.14,-84.8 251.86,-84.8 251.86,-48.8 342.14,-48.8 342.14,-84.8"/>
<text text-anchor="middle" x="297" y="-62.6" font-family="Times,serif" font-size="14.00">TruncatePipe</text>
</g>
<!-- TruncatePipe&#45;&gt;SharedModule -->
<g id="edge9" class="edge">
<title>TruncatePipe&#45;&gt;SharedModule</title>
<path fill="none" stroke="black" d="M320.04,-84.83C320.04,-101.86 320.04,-124.8 320.04,-124.8 320.04,-124.8 670.55,-124.8 670.55,-124.8"/>
<polygon fill="black" stroke="black" points="670.55,-128.3 680.55,-124.8 670.55,-121.3 670.55,-128.3"/>
</g>
<!-- YesNoPipe -->
<g id="node10" class="node">
<title>YesNoPipe</title>
<polygon fill="#ffffb3" stroke="black" points="233.76,-84.8 154.24,-84.8 154.24,-48.8 233.76,-48.8 233.76,-84.8"/>
<text text-anchor="middle" x="194" y="-62.6" font-family="Times,serif" font-size="14.00">YesNoPipe</text>
</g>
<!-- YesNoPipe&#45;&gt;SharedModule -->
<g id="edge10" class="edge">
<title>YesNoPipe&#45;&gt;SharedModule</title>
<path fill="none" stroke="black" d="M209.91,-85.07C209.91,-103.36 209.91,-128.8 209.91,-128.8 209.91,-128.8 670.6,-128.8 670.6,-128.8"/>
<polygon fill="black" stroke="black" points="670.6,-132.3 680.6,-128.8 670.6,-125.3 670.6,-132.3"/>
</g>
<!-- BottomNavComponent  -->
<g id="node13" class="node">
<title>BottomNavComponent </title>
<polygon fill="#fb8072" stroke="black" points="1581.16,-214.8 1430.84,-214.8 1430.84,-178.8 1581.16,-178.8 1581.16,-214.8"/>
<text text-anchor="middle" x="1506" y="-192.6" font-family="Times,serif" font-size="14.00">BottomNavComponent </text>
</g>
<!-- SharedModule&#45;&gt;BottomNavComponent  -->
<g id="edge12" class="edge">
<title>SharedModule&#45;&gt;BottomNavComponent </title>
<path fill="none" stroke="black" stroke-dasharray="5,2" d="M779.44,-135.8C942.59,-135.8 1453.49,-135.8 1453.49,-135.8 1453.49,-135.8 1453.49,-168.5 1453.49,-168.5"/>
<polygon fill="black" stroke="black" points="1449.99,-168.5 1453.49,-178.5 1456.99,-168.5 1449.99,-168.5"/>
</g>
<!-- ChildGroupingComponent  -->
<g id="node14" class="node">
<title>ChildGroupingComponent </title>
<polygon fill="#fb8072" stroke="black" points="1412.61,-214.8 1243.39,-214.8 1243.39,-178.8 1412.61,-178.8 1412.61,-214.8"/>
<text text-anchor="middle" x="1328" y="-192.6" font-family="Times,serif" font-size="14.00">ChildGroupingComponent </text>
</g>
<!-- SharedModule&#45;&gt;ChildGroupingComponent  -->
<g id="edge13" class="edge">
<title>SharedModule&#45;&gt;ChildGroupingComponent </title>
<path fill="none" stroke="black" stroke-dasharray="5,2" d="M779.61,-139.8C912.69,-139.8 1267.57,-139.8 1267.57,-139.8 1267.57,-139.8 1267.57,-168.76 1267.57,-168.76"/>
<polygon fill="black" stroke="black" points="1264.07,-168.76 1267.57,-178.76 1271.07,-168.76 1264.07,-168.76"/>
</g>
<!-- FooterComponent  -->
<g id="node15" class="node">
<title>FooterComponent </title>
<polygon fill="#fb8072" stroke="black" points="1225.88,-214.8 1104.12,-214.8 1104.12,-178.8 1225.88,-178.8 1225.88,-214.8"/>
<text text-anchor="middle" x="1165" y="-192.6" font-family="Times,serif" font-size="14.00">FooterComponent </text>
</g>
<!-- SharedModule&#45;&gt;FooterComponent  -->
<g id="edge14" class="edge">
<title>SharedModule&#45;&gt;FooterComponent </title>
<path fill="none" stroke="black" stroke-dasharray="5,2" d="M779.39,-142.8C884.98,-142.8 1123.12,-142.8 1123.12,-142.8 1123.12,-142.8 1123.12,-168.52 1123.12,-168.52"/>
<polygon fill="black" stroke="black" points="1119.63,-168.52 1123.12,-178.52 1126.63,-168.52 1119.63,-168.52"/>
</g>
<!-- FrameworkRendererComponent  -->
<g id="node16" class="node">
<title>FrameworkRendererComponent </title>
<polygon fill="#fb8072" stroke="black" points="1086.16,-214.8 885.84,-214.8 885.84,-178.8 1086.16,-178.8 1086.16,-214.8"/>
<text text-anchor="middle" x="986" y="-192.6" font-family="Times,serif" font-size="14.00">FrameworkRendererComponent </text>
</g>
<!-- SharedModule&#45;&gt;FrameworkRendererComponent  -->
<g id="edge15" class="edge">
<title>SharedModule&#45;&gt;FrameworkRendererComponent </title>
<path fill="none" stroke="black" stroke-dasharray="5,2" d="M779.47,-146.8C843.13,-146.8 945.62,-146.8 945.62,-146.8 945.62,-146.8 945.62,-168.75 945.62,-168.75"/>
<polygon fill="black" stroke="black" points="942.13,-168.75 945.62,-178.75 949.13,-168.75 942.13,-168.75"/>
</g>
<!-- HeaderComponent  -->
<g id="node17" class="node">
<title>HeaderComponent </title>
<polygon fill="#fb8072" stroke="black" points="867.74,-214.8 742.26,-214.8 742.26,-178.8 867.74,-178.8 867.74,-214.8"/>
<text text-anchor="middle" x="805" y="-192.6" font-family="Times,serif" font-size="14.00">HeaderComponent </text>
</g>
<!-- SharedModule&#45;&gt;HeaderComponent  -->
<g id="edge16" class="edge">
<title>SharedModule&#45;&gt;HeaderComponent </title>
<path fill="none" stroke="black" stroke-dasharray="5,2" d="M760.79,-149.91C760.79,-149.91 760.79,-168.79 760.79,-168.79"/>
<polygon fill="black" stroke="black" points="757.29,-168.79 760.79,-178.79 764.29,-168.79 757.29,-168.79"/>
</g>
<!-- MaterialModule  -->
<g id="node18" class="node">
<title>MaterialModule </title>
<polygon fill="#fb8072" stroke="black" points="724.47,-214.8 613.53,-214.8 613.53,-178.8 724.47,-178.8 724.47,-214.8"/>
<text text-anchor="middle" x="669" y="-192.6" font-family="Times,serif" font-size="14.00">MaterialModule </text>
</g>
<!-- SharedModule&#45;&gt;MaterialModule  -->
<g id="edge17" class="edge">
<title>SharedModule&#45;&gt;MaterialModule </title>
<path fill="none" stroke="black" stroke-dasharray="5,2" d="M702.51,-149.91C702.51,-149.91 702.51,-168.79 702.51,-168.79"/>
<polygon fill="black" stroke="black" points="699.01,-168.79 702.51,-178.79 706.01,-168.79 699.01,-168.79"/>
</g>
<!-- PageNotFoundComponent  -->
<g id="node19" class="node">
<title>PageNotFoundComponent </title>
<polygon fill="#fb8072" stroke="black" points="595.32,-214.8 426.68,-214.8 426.68,-178.8 595.32,-178.8 595.32,-214.8"/>
<text text-anchor="middle" x="511" y="-192.6" font-family="Times,serif" font-size="14.00">PageNotFoundComponent </text>
</g>
<!-- SharedModule&#45;&gt;PageNotFoundComponent  -->
<g id="edge18" class="edge">
<title>SharedModule&#45;&gt;PageNotFoundComponent </title>
<path fill="none" stroke="black" stroke-dasharray="5,2" d="M680.67,-146.8C624.49,-146.8 540.38,-146.8 540.38,-146.8 540.38,-146.8 540.38,-168.75 540.38,-168.75"/>
<polygon fill="black" stroke="black" points="536.88,-168.75 540.38,-178.75 543.88,-168.75 536.88,-168.75"/>
</g>
<!-- SetToArrayPipe  -->
<g id="node20" class="node">
<title>SetToArrayPipe </title>
<polygon fill="#fb8072" stroke="black" points="408.47,-214.8 297.53,-214.8 297.53,-178.8 408.47,-178.8 408.47,-214.8"/>
<text text-anchor="middle" x="353" y="-192.6" font-family="Times,serif" font-size="14.00">SetToArrayPipe </text>
</g>
<!-- SharedModule&#45;&gt;SetToArrayPipe  -->
<g id="edge19" class="edge">
<title>SharedModule&#45;&gt;SetToArrayPipe </title>
<path fill="none" stroke="black" stroke-dasharray="5,2" d="M680.48,-142.8C584.91,-142.8 384.38,-142.8 384.38,-142.8 384.38,-142.8 384.38,-168.52 384.38,-168.52"/>
<polygon fill="black" stroke="black" points="380.88,-168.52 384.38,-178.52 387.88,-168.52 380.88,-168.52"/>
</g>
<!-- TruncatePipe  -->
<g id="node21" class="node">
<title>TruncatePipe </title>
<polygon fill="#fb8072" stroke="black" points="280.14,-214.8 185.86,-214.8 185.86,-178.8 280.14,-178.8 280.14,-214.8"/>
<text text-anchor="middle" x="233" y="-192.6" font-family="Times,serif" font-size="14.00">TruncatePipe </text>
</g>
<!-- SharedModule&#45;&gt;TruncatePipe  -->
<g id="edge20" class="edge">
<title>SharedModule&#45;&gt;TruncatePipe </title>
<path fill="none" stroke="black" stroke-dasharray="5,2" d="M680.77,-139.8C561.32,-139.8 265.88,-139.8 265.88,-139.8 265.88,-139.8 265.88,-168.76 265.88,-168.76"/>
<polygon fill="black" stroke="black" points="262.38,-168.76 265.88,-178.76 269.38,-168.76 262.38,-168.76"/>
</g>
<!-- YesNoPipe  -->
<g id="node22" class="node">
<title>YesNoPipe </title>
<polygon fill="#fb8072" stroke="black" points="167.76,-214.8 84.24,-214.8 84.24,-178.8 167.76,-178.8 167.76,-214.8"/>
<text text-anchor="middle" x="126" y="-192.6" font-family="Times,serif" font-size="14.00">YesNoPipe </text>
</g>
<!-- SharedModule&#45;&gt;YesNoPipe  -->
<g id="edge21" class="edge">
<title>SharedModule&#45;&gt;YesNoPipe </title>
<path fill="none" stroke="black" stroke-dasharray="5,2" d="M680.49,-135.8C542.02,-135.8 160.88,-135.8 160.88,-135.8 160.88,-135.8 160.88,-168.5 160.88,-168.5"/>
<polygon fill="black" stroke="black" points="157.38,-168.5 160.88,-178.5 164.38,-168.5 157.38,-168.5"/>
</g>
<!-- MaterialModule -->
<g id="node12" class="node">
<title>MaterialModule</title>
<polygon fill="#8dd3c7" stroke="black" points="130.47,-84.8 127.47,-88.8 106.47,-88.8 103.47,-84.8 23.53,-84.8 23.53,-48.8 130.47,-48.8 130.47,-84.8"/>
<text text-anchor="middle" x="77" y="-62.6" font-family="Times,serif" font-size="14.00">MaterialModule</text>
</g>
<!-- MaterialModule&#45;&gt;SharedModule -->
<g id="edge11" class="edge">
<title>MaterialModule&#45;&gt;SharedModule</title>
<path fill="none" stroke="black" d="M107.43,-84.91C107.43,-104.14 107.43,-131.8 107.43,-131.8 107.43,-131.8 670.63,-131.8 670.63,-131.8"/>
<polygon fill="black" stroke="black" points="670.63,-135.3 680.63,-131.8 670.63,-128.3 670.63,-135.3"/>
</g>
</g>
</svg>
