<?xml version="1.0" encoding="UTF-8" standalone="no"?>
<!DOCTYPE svg PUBLIC "-//W3C//DTD SVG 1.1//EN"
 "http://www.w3.org/Graphics/SVG/1.1/DTD/svg11.dtd">
<!-- Generated by graphviz version 2.47.0 (20210316.0004)
 -->
<!-- Title: dependencies Pages: 1 -->
<svg width="1672pt" height="284pt"
 viewBox="0.00 0.00 1672.00 284.00" xmlns="http://www.w3.org/2000/svg" xmlns:xlink="http://www.w3.org/1999/xlink">
<g id="graph0" class="graph" transform="scale(1 1) rotate(0) translate(4 280)">
<title>dependencies</title>
<polygon fill="white" stroke="transparent" points="-4,4 -4,-280 1668,-280 1668,4 -4,4"/>
<text text-anchor="start" x="811.01" y="-42.4" font-family="sans-serif" font-weight="bold" font-size="14.00">Legend</text>
<polygon fill="#ffffb3" stroke="transparent" points="598,-10 598,-30 618,-30 618,-10 598,-10"/>
<text text-anchor="start" x="621.63" y="-15.4" font-family="sans-serif" font-size="14.00"> &#160;Declarations</text>
<polygon fill="#8dd3c7" stroke="transparent" points="711,-10 711,-30 731,-30 731,-10 711,-10"/>
<text text-anchor="start" x="734.73" y="-15.4" font-family="sans-serif" font-size="14.00"> &#160;Module</text>
<polygon fill="#80b1d3" stroke="transparent" points="797,-10 797,-30 817,-30 817,-10 797,-10"/>
<text text-anchor="start" x="820.78" y="-15.4" font-family="sans-serif" font-size="14.00"> &#160;Bootstrap</text>
<polygon fill="#fdb462" stroke="transparent" points="894,-10 894,-30 914,-30 914,-10 894,-10"/>
<text text-anchor="start" x="917.67" y="-15.4" font-family="sans-serif" font-size="14.00"> &#160;Providers</text>
<polygon fill="#fb8072" stroke="transparent" points="990,-10 990,-30 1010,-30 1010,-10 990,-10"/>
<text text-anchor="start" x="1013.73" y="-15.4" font-family="sans-serif" font-size="14.00"> &#160;Exports</text>
<g id="clust1" class="cluster">
<title>cluster_SharedModule</title>
<polygon fill="none" stroke="black" stroke-dasharray="1,5" points="8,-70 8,-268 1656,-268 1656,-70 8,-70"/>
</g>
<g id="clust2" class="cluster">
<title>cluster_SharedModule_declarations</title>
<polygon fill="none" stroke="black" points="146,-78 146,-130 1648,-130 1648,-78 146,-78"/>
</g>
<g id="clust14" class="cluster">
<title>cluster_SharedModule_exports</title>
<polygon fill="none" stroke="black" points="76,-208 76,-260 1589,-260 1589,-208 76,-208"/>
</g>
<g id="clust13" class="cluster">
<title>cluster_SharedModule_imports</title>
<polygon fill="none" stroke="black" points="16,-78 16,-130 138,-130 138,-78 16,-78"/>
</g>
<!-- BottomNavComponent -->
<g id="node1" class="node">
<title>BottomNavComponent</title>
<polygon fill="#ffffb3" stroke="black" points="1640.16,-122 1493.84,-122 1493.84,-86 1640.16,-86 1640.16,-122"/>
<text text-anchor="middle" x="1567" y="-99.8" font-family="Times,serif" font-size="14.00">BottomNavComponent</text>
</g>
<!-- SharedModule -->
<g id="node11" class="node">
<title>SharedModule</title>
<polygon fill="#8dd3c7" stroke="black" points="779.42,-187 776.42,-191 755.42,-191 752.42,-187 680.58,-187 680.58,-151 779.42,-151 779.42,-187"/>
<text text-anchor="middle" x="730" y="-164.8" font-family="Times,serif" font-size="14.00">SharedModule</text>
</g>
<!-- BottomNavComponent&#45;&gt;SharedModule -->
<g id="edge1" class="edge">
<title>BottomNavComponent&#45;&gt;SharedModule</title>
<path fill="none" stroke="black" d="M1537.38,-122.11C1537.38,-141.34 1537.38,-169 1537.38,-169 1537.38,-169 789.29,-169 789.29,-169"/>
<polygon fill="black" stroke="black" points="789.29,-165.5 779.29,-169 789.29,-172.5 789.29,-165.5"/>
</g>
<!-- ChildGroupingComponent -->
<g id="node2" class="node">
<title>ChildGroupingComponent</title>
<polygon fill="#ffffb3" stroke="black" points="1476.11,-122 1309.89,-122 1309.89,-86 1476.11,-86 1476.11,-122"/>
<text text-anchor="middle" x="1393" y="-99.8" font-family="Times,serif" font-size="14.00">ChildGroupingComponent</text>
</g>
<!-- ChildGroupingComponent&#45;&gt;SharedModule -->
<g id="edge2" class="edge">
<title>ChildGroupingComponent&#45;&gt;SharedModule</title>
<path fill="none" stroke="black" d="M1361.38,-122.27C1361.38,-140.56 1361.38,-166 1361.38,-166 1361.38,-166 789.28,-166 789.28,-166"/>
<polygon fill="black" stroke="black" points="789.28,-162.5 779.28,-166 789.28,-169.5 789.28,-162.5"/>
</g>
<!-- CriterionComponent -->
<g id="node3" class="node">
<title>CriterionComponent</title>
<polygon fill="#ffffb3" stroke="black" points="1291.88,-122 1160.12,-122 1160.12,-86 1291.88,-86 1291.88,-122"/>
<text text-anchor="middle" x="1226" y="-99.8" font-family="Times,serif" font-size="14.00">CriterionComponent</text>
</g>
<!-- CriterionComponent&#45;&gt;SharedModule -->
<g id="edge3" class="edge">
<title>CriterionComponent&#45;&gt;SharedModule</title>
<path fill="none" stroke="black" d="M1192.88,-122.03C1192.88,-139.06 1192.88,-162 1192.88,-162 1192.88,-162 789.54,-162 789.54,-162"/>
<polygon fill="black" stroke="black" points="789.54,-158.5 779.54,-162 789.54,-165.5 789.54,-158.5"/>
</g>
<!-- FooterComponent -->
<g id="node4" class="node">
<title>FooterComponent</title>
<polygon fill="#ffffb3" stroke="black" points="1141.88,-122 1024.12,-122 1024.12,-86 1141.88,-86 1141.88,-122"/>
<text text-anchor="middle" x="1083" y="-99.8" font-family="Times,serif" font-size="14.00">FooterComponent</text>
</g>
<!-- FooterComponent&#45;&gt;SharedModule -->
<g id="edge4" class="edge">
<title>FooterComponent&#45;&gt;SharedModule</title>
<path fill="none" stroke="black" d="M1055.2,-122.01C1055.2,-138.05 1055.2,-159 1055.2,-159 1055.2,-159 789.39,-159 789.39,-159"/>
<polygon fill="black" stroke="black" points="789.39,-155.5 779.39,-159 789.39,-162.5 789.39,-155.5"/>
</g>
<!-- FrameworkRendererComponent -->
<g id="node5" class="node">
<title>FrameworkRendererComponent</title>
<polygon fill="#ffffb3" stroke="black" points="1005.66,-122 808.34,-122 808.34,-86 1005.66,-86 1005.66,-122"/>
<text text-anchor="middle" x="907" y="-99.8" font-family="Times,serif" font-size="14.00">FrameworkRendererComponent</text>
</g>
<!-- FrameworkRendererComponent&#45;&gt;SharedModule -->
<g id="edge5" class="edge">
<title>FrameworkRendererComponent&#45;&gt;SharedModule</title>
<path fill="none" stroke="black" d="M838.02,-122.12C838.02,-136.78 838.02,-155 838.02,-155 838.02,-155 789.27,-155 789.27,-155"/>
<polygon fill="black" stroke="black" points="789.27,-151.5 779.27,-155 789.27,-158.5 789.27,-151.5"/>
</g>
<!-- HeaderComponent -->
<g id="node6" class="node">
<title>HeaderComponent</title>
<polygon fill="#ffffb3" stroke="black" points="790.74,-122 669.26,-122 669.26,-86 790.74,-86 790.74,-122"/>
<text text-anchor="middle" x="730" y="-99.8" font-family="Times,serif" font-size="14.00">HeaderComponent</text>
</g>
<!-- HeaderComponent&#45;&gt;SharedModule -->
<g id="edge6" class="edge">
<title>HeaderComponent&#45;&gt;SharedModule</title>
<path fill="none" stroke="black" d="M730,-122.11C730,-122.11 730,-140.99 730,-140.99"/>
<polygon fill="black" stroke="black" points="726.5,-140.99 730,-150.99 733.5,-140.99 726.5,-140.99"/>
</g>
<!-- PageNotFoundComponent -->
<g id="node7" class="node">
<title>PageNotFoundComponent</title>
<polygon fill="#ffffb3" stroke="black" points="650.82,-122 485.18,-122 485.18,-86 650.82,-86 650.82,-122"/>
<text text-anchor="middle" x="568" y="-99.8" font-family="Times,serif" font-size="14.00">PageNotFoundComponent</text>
</g>
<!-- PageNotFoundComponent&#45;&gt;SharedModule -->
<g id="edge7" class="edge">
<title>PageNotFoundComponent&#45;&gt;SharedModule</title>
<path fill="none" stroke="black" d="M632.21,-122.12C632.21,-136.78 632.21,-155 632.21,-155 632.21,-155 670.53,-155 670.53,-155"/>
<polygon fill="black" stroke="black" points="670.53,-158.5 680.53,-155 670.53,-151.5 670.53,-158.5"/>
</g>
<!-- SetToArrayPipe -->
<g id="node8" class="node">
<title>SetToArrayPipe</title>
<polygon fill="#ffffb3" stroke="black" points="467.47,-122 360.53,-122 360.53,-86 467.47,-86 467.47,-122"/>
<text text-anchor="middle" x="414" y="-99.8" font-family="Times,serif" font-size="14.00">SetToArrayPipe</text>
</g>
<!-- SetToArrayPipe&#45;&gt;SharedModule -->
<g id="edge8" class="edge">
<title>SetToArrayPipe&#45;&gt;SharedModule</title>
<path fill="none" stroke="black" d="M447.04,-122.01C447.04,-138.05 447.04,-159 447.04,-159 447.04,-159 670.71,-159 670.71,-159"/>
<polygon fill="black" stroke="black" points="670.71,-162.5 680.71,-159 670.71,-155.5 670.71,-162.5"/>
</g>
<!-- TruncatePipe -->
<g id="node9" class="node">
<title>TruncatePipe</title>
<polygon fill="#ffffb3" stroke="black" points="342.14,-122 251.86,-122 251.86,-86 342.14,-86 342.14,-122"/>
<text text-anchor="middle" x="297" y="-99.8" font-family="Times,serif" font-size="14.00">TruncatePipe</text>
</g>
<!-- TruncatePipe&#45;&gt;SharedModule -->
<g id="edge9" class="edge">
<title>TruncatePipe&#45;&gt;SharedModule</title>
<path fill="none" stroke="black" d="M320.04,-122.03C320.04,-139.06 320.04,-162 320.04,-162 320.04,-162 670.55,-162 670.55,-162"/>
<polygon fill="black" stroke="black" points="670.55,-165.5 680.55,-162 670.55,-158.5 670.55,-165.5"/>
</g>
<!-- YesNoPipe -->
<g id="node10" class="node">
<title>YesNoPipe</title>
<polygon fill="#ffffb3" stroke="black" points="233.76,-122 154.24,-122 154.24,-86 233.76,-86 233.76,-122"/>
<text text-anchor="middle" x="194" y="-99.8" font-family="Times,serif" font-size="14.00">YesNoPipe</text>
</g>
<!-- YesNoPipe&#45;&gt;SharedModule -->
<g id="edge10" class="edge">
<title>YesNoPipe&#45;&gt;SharedModule</title>
<path fill="none" stroke="black" d="M209.91,-122.27C209.91,-140.56 209.91,-166 209.91,-166 209.91,-166 670.6,-166 670.6,-166"/>
<polygon fill="black" stroke="black" points="670.6,-169.5 680.6,-166 670.6,-162.5 670.6,-169.5"/>
</g>
<!-- BottomNavComponent  -->
<g id="node13" class="node">
<title>BottomNavComponent </title>
<polygon fill="#fb8072" stroke="black" points="1581.16,-252 1430.84,-252 1430.84,-216 1581.16,-216 1581.16,-252"/>
<text text-anchor="middle" x="1506" y="-229.8" font-family="Times,serif" font-size="14.00">BottomNavComponent </text>
</g>
<!-- SharedModule&#45;&gt;BottomNavComponent  -->
<g id="edge12" class="edge">
<title>SharedModule&#45;&gt;BottomNavComponent </title>
<path fill="none" stroke="black" stroke-dasharray="5,2" d="M779.44,-173C942.59,-173 1453.49,-173 1453.49,-173 1453.49,-173 1453.49,-205.7 1453.49,-205.7"/>
<polygon fill="black" stroke="black" points="1449.99,-205.7 1453.49,-215.7 1456.99,-205.7 1449.99,-205.7"/>
</g>
<!-- ChildGroupingComponent  -->
<g id="node14" class="node">
<title>ChildGroupingComponent </title>
<polygon fill="#fb8072" stroke="black" points="1412.61,-252 1243.39,-252 1243.39,-216 1412.61,-216 1412.61,-252"/>
<text text-anchor="middle" x="1328" y="-229.8" font-family="Times,serif" font-size="14.00">ChildGroupingComponent </text>
</g>
<!-- SharedModule&#45;&gt;ChildGroupingComponent  -->
<g id="edge13" class="edge">
<title>SharedModule&#45;&gt;ChildGroupingComponent </title>
<path fill="none" stroke="black" stroke-dasharray="5,2" d="M779.61,-177C912.69,-177 1267.57,-177 1267.57,-177 1267.57,-177 1267.57,-205.96 1267.57,-205.96"/>
<polygon fill="black" stroke="black" points="1264.07,-205.96 1267.57,-215.96 1271.07,-205.96 1264.07,-205.96"/>
</g>
<!-- FooterComponent  -->
<g id="node15" class="node">
<title>FooterComponent </title>
<polygon fill="#fb8072" stroke="black" points="1225.88,-252 1104.12,-252 1104.12,-216 1225.88,-216 1225.88,-252"/>
<text text-anchor="middle" x="1165" y="-229.8" font-family="Times,serif" font-size="14.00">FooterComponent </text>
</g>
<!-- SharedModule&#45;&gt;FooterComponent  -->
<g id="edge14" class="edge">
<title>SharedModule&#45;&gt;FooterComponent </title>
<path fill="none" stroke="black" stroke-dasharray="5,2" d="M779.39,-180C884.98,-180 1123.12,-180 1123.12,-180 1123.12,-180 1123.12,-205.72 1123.12,-205.72"/>
<polygon fill="black" stroke="black" points="1119.63,-205.72 1123.12,-215.72 1126.63,-205.72 1119.63,-205.72"/>
</g>
<!-- FrameworkRendererComponent  -->
<g id="node16" class="node">
<title>FrameworkRendererComponent </title>
<polygon fill="#fb8072" stroke="black" points="1086.16,-252 885.84,-252 885.84,-216 1086.16,-216 1086.16,-252"/>
<text text-anchor="middle" x="986" y="-229.8" font-family="Times,serif" font-size="14.00">FrameworkRendererComponent </text>
</g>
<!-- SharedModule&#45;&gt;FrameworkRendererComponent  -->
<g id="edge15" class="edge">
<title>SharedModule&#45;&gt;FrameworkRendererComponent </title>
<path fill="none" stroke="black" stroke-dasharray="5,2" d="M779.47,-184C843.13,-184 945.62,-184 945.62,-184 945.62,-184 945.62,-205.95 945.62,-205.95"/>
<polygon fill="black" stroke="black" points="942.13,-205.95 945.62,-215.95 949.13,-205.95 942.13,-205.95"/>
</g>
<!-- HeaderComponent  -->
<g id="node17" class="node">
<title>HeaderComponent </title>
<polygon fill="#fb8072" stroke="black" points="867.74,-252 742.26,-252 742.26,-216 867.74,-216 867.74,-252"/>
<text text-anchor="middle" x="805" y="-229.8" font-family="Times,serif" font-size="14.00">HeaderComponent </text>
</g>
<!-- SharedModule&#45;&gt;HeaderComponent  -->
<g id="edge16" class="edge">
<title>SharedModule&#45;&gt;HeaderComponent </title>
<path fill="none" stroke="black" stroke-dasharray="5,2" d="M760.79,-187.11C760.79,-187.11 760.79,-205.99 760.79,-205.99"/>
<polygon fill="black" stroke="black" points="757.29,-205.99 760.79,-215.99 764.29,-205.99 757.29,-205.99"/>
</g>
<!-- MaterialModule  -->
<g id="node18" class="node">
<title>MaterialModule </title>
<polygon fill="#fb8072" stroke="black" points="724.47,-252 613.53,-252 613.53,-216 724.47,-216 724.47,-252"/>
<text text-anchor="middle" x="669" y="-229.8" font-family="Times,serif" font-size="14.00">MaterialModule </text>
</g>
<!-- SharedModule&#45;&gt;MaterialModule  -->
<g id="edge17" class="edge">
<title>SharedModule&#45;&gt;MaterialModule </title>
<path fill="none" stroke="black" stroke-dasharray="5,2" d="M702.51,-187.11C702.51,-187.11 702.51,-205.99 702.51,-205.99"/>
<polygon fill="black" stroke="black" points="699.01,-205.99 702.51,-215.99 706.01,-205.99 699.01,-205.99"/>
</g>
<!-- PageNotFoundComponent  -->
<g id="node19" class="node">
<title>PageNotFoundComponent </title>
<polygon fill="#fb8072" stroke="black" points="595.32,-252 426.68,-252 426.68,-216 595.32,-216 595.32,-252"/>
<text text-anchor="middle" x="511" y="-229.8" font-family="Times,serif" font-size="14.00">PageNotFoundComponent </text>
</g>
<!-- SharedModule&#45;&gt;PageNotFoundComponent  -->
<g id="edge18" class="edge">
<title>SharedModule&#45;&gt;PageNotFoundComponent </title>
<path fill="none" stroke="black" stroke-dasharray="5,2" d="M680.67,-184C624.49,-184 540.38,-184 540.38,-184 540.38,-184 540.38,-205.95 540.38,-205.95"/>
<polygon fill="black" stroke="black" points="536.88,-205.95 540.38,-215.95 543.88,-205.95 536.88,-205.95"/>
</g>
<!-- SetToArrayPipe  -->
<g id="node20" class="node">
<title>SetToArrayPipe </title>
<polygon fill="#fb8072" stroke="black" points="408.47,-252 297.53,-252 297.53,-216 408.47,-216 408.47,-252"/>
<text text-anchor="middle" x="353" y="-229.8" font-family="Times,serif" font-size="14.00">SetToArrayPipe </text>
</g>
<!-- SharedModule&#45;&gt;SetToArrayPipe  -->
<g id="edge19" class="edge">
<title>SharedModule&#45;&gt;SetToArrayPipe </title>
<path fill="none" stroke="black" stroke-dasharray="5,2" d="M680.48,-180C584.91,-180 384.38,-180 384.38,-180 384.38,-180 384.38,-205.72 384.38,-205.72"/>
<polygon fill="black" stroke="black" points="380.88,-205.72 384.38,-215.72 387.88,-205.72 380.88,-205.72"/>
</g>
<!-- TruncatePipe  -->
<g id="node21" class="node">
<title>TruncatePipe </title>
<polygon fill="#fb8072" stroke="black" points="280.14,-252 185.86,-252 185.86,-216 280.14,-216 280.14,-252"/>
<text text-anchor="middle" x="233" y="-229.8" font-family="Times,serif" font-size="14.00">TruncatePipe </text>
</g>
<!-- SharedModule&#45;&gt;TruncatePipe  -->
<g id="edge20" class="edge">
<title>SharedModule&#45;&gt;TruncatePipe </title>
<path fill="none" stroke="black" stroke-dasharray="5,2" d="M680.77,-177C561.32,-177 265.88,-177 265.88,-177 265.88,-177 265.88,-205.96 265.88,-205.96"/>
<polygon fill="black" stroke="black" points="262.38,-205.96 265.88,-215.96 269.38,-205.96 262.38,-205.96"/>
</g>
<!-- YesNoPipe  -->
<g id="node22" class="node">
<title>YesNoPipe </title>
<polygon fill="#fb8072" stroke="black" points="167.76,-252 84.24,-252 84.24,-216 167.76,-216 167.76,-252"/>
<text text-anchor="middle" x="126" y="-229.8" font-family="Times,serif" font-size="14.00">YesNoPipe </text>
</g>
<!-- SharedModule&#45;&gt;YesNoPipe  -->
<g id="edge21" class="edge">
<title>SharedModule&#45;&gt;YesNoPipe </title>
<path fill="none" stroke="black" stroke-dasharray="5,2" d="M680.49,-173C542.02,-173 160.88,-173 160.88,-173 160.88,-173 160.88,-205.7 160.88,-205.7"/>
<polygon fill="black" stroke="black" points="157.38,-205.7 160.88,-215.7 164.38,-205.7 157.38,-205.7"/>
</g>
<!-- MaterialModule -->
<g id="node12" class="node">
<title>MaterialModule</title>
<polygon fill="#8dd3c7" stroke="black" points="130.47,-122 127.47,-126 106.47,-126 103.47,-122 23.53,-122 23.53,-86 130.47,-86 130.47,-122"/>
<text text-anchor="middle" x="77" y="-99.8" font-family="Times,serif" font-size="14.00">MaterialModule</text>
</g>
<!-- MaterialModule&#45;&gt;SharedModule -->
<g id="edge11" class="edge">
<title>MaterialModule&#45;&gt;SharedModule</title>
<path fill="none" stroke="black" d="M107.43,-122.11C107.43,-141.34 107.43,-169 107.43,-169 107.43,-169 670.63,-169 670.63,-169"/>
<polygon fill="black" stroke="black" points="670.63,-172.5 680.63,-169 670.63,-165.5 670.63,-172.5"/>
</g>
</g>
</svg>
