<?xml version="1.0" encoding="UTF-8" standalone="no"?>
<!DOCTYPE svg PUBLIC "-//W3C//DTD SVG 1.1//EN"
 "http://www.w3.org/Graphics/SVG/1.1/DTD/svg11.dtd">
<!-- Generated by graphviz version 2.47.0 (20210316.0004)
 -->
<!-- Title: dependencies Pages: 1 -->
<svg width="1098pt" height="284pt"
 viewBox="0.00 0.00 1098.00 284.00" xmlns="http://www.w3.org/2000/svg" xmlns:xlink="http://www.w3.org/1999/xlink">
<g id="graph0" class="graph" transform="scale(1 1) rotate(0) translate(4 280)">
<title>dependencies</title>
<polygon fill="white" stroke="transparent" points="-4,4 -4,-280 1094,-280 1094,4 -4,4"/>
<text text-anchor="start" x="524.01" y="-42.4" font-family="sans-serif" font-weight="bold" font-size="14.00">Legend</text>
<polygon fill="#ffffb3" stroke="transparent" points="311,-10 311,-30 331,-30 331,-10 311,-10"/>
<text text-anchor="start" x="334.63" y="-15.4" font-family="sans-serif" font-size="14.00"> &#160;Declarations</text>
<polygon fill="#8dd3c7" stroke="transparent" points="424,-10 424,-30 444,-30 444,-10 424,-10"/>
<text text-anchor="start" x="447.73" y="-15.4" font-family="sans-serif" font-size="14.00"> &#160;Module</text>
<polygon fill="#80b1d3" stroke="transparent" points="510,-10 510,-30 530,-30 530,-10 510,-10"/>
<text text-anchor="start" x="533.78" y="-15.4" font-family="sans-serif" font-size="14.00"> &#160;Bootstrap</text>
<polygon fill="#fdb462" stroke="transparent" points="607,-10 607,-30 627,-30 627,-10 607,-10"/>
<text text-anchor="start" x="630.67" y="-15.4" font-family="sans-serif" font-size="14.00"> &#160;Providers</text>
<polygon fill="#fb8072" stroke="transparent" points="703,-10 703,-30 723,-30 723,-10 703,-10"/>
<text text-anchor="start" x="726.73" y="-15.4" font-family="sans-serif" font-size="14.00"> &#160;Exports</text>
<g id="clust1" class="cluster">
<title>cluster_AppModule</title>
<polygon fill="none" stroke="black" stroke-dasharray="1,5" points="8,-70 8,-268 1082,-268 1082,-70 8,-70"/>
</g>
<g id="clust10" class="cluster">
<title>cluster_AppModule_bootstrap</title>
<polygon fill="none" stroke="black" points="476,-208 476,-260 600,-260 600,-208 476,-208"/>
</g>
<g id="clust2" class="cluster">
<title>cluster_AppModule_declarations</title>
<polygon fill="none" stroke="black" points="390,-78 390,-130 1074,-130 1074,-78 390,-78"/>
</g>
<g id="clust8" class="cluster">
<title>cluster_AppModule_imports</title>
<polygon fill="none" stroke="black" points="16,-78 16,-130 382,-130 382,-78 16,-78"/>
</g>
<!-- AboutComponent -->
<g id="node1" class="node">
<title>AboutComponent</title>
<polygon fill="#ffffb3" stroke="black" points="1066.33,-122 949.67,-122 949.67,-86 1066.33,-86 1066.33,-122"/>
<text text-anchor="middle" x="1008" y="-99.8" font-family="Times,serif" font-size="14.00">AboutComponent</text>
</g>
<!-- AppModule -->
<g id="node6" class="node">
<title>AppModule</title>
<polygon fill="#8dd3c7" stroke="black" points="579.66,-187 576.66,-191 555.66,-191 552.66,-187 496.34,-187 496.34,-151 579.66,-151 579.66,-187"/>
<text text-anchor="middle" x="538" y="-164.8" font-family="Times,serif" font-size="14.00">AppModule</text>
</g>
<!-- AboutComponent&#45;&gt;AppModule -->
<g id="edge1" class="edge">
<title>AboutComponent&#45;&gt;AppModule</title>
<path fill="none" stroke="black" d="M1008,-122.29C1008,-144.21 1008,-178 1008,-178 1008,-178 589.71,-178 589.71,-178"/>
<polygon fill="black" stroke="black" points="589.71,-174.5 579.71,-178 589.71,-181.5 589.71,-174.5"/>
</g>
<!-- AppComponent -->
<g id="node2" class="node">
<title>AppComponent</title>
<polygon fill="#ffffb3" stroke="black" points="931.94,-122 826.06,-122 826.06,-86 931.94,-86 931.94,-122"/>
<text text-anchor="middle" x="879" y="-99.8" font-family="Times,serif" font-size="14.00">AppComponent</text>
</g>
<!-- AppComponent&#45;&gt;AppModule -->
<g id="edge2" class="edge">
<title>AppComponent&#45;&gt;AppModule</title>
<path fill="none" stroke="black" d="M879,-122.11C879,-141.34 879,-169 879,-169 879,-169 589.81,-169 589.81,-169"/>
<polygon fill="black" stroke="black" points="589.81,-165.5 579.81,-169 589.81,-172.5 589.81,-165.5"/>
</g>
<!-- BannerComponent -->
<g id="node3" class="node">
<title>BannerComponent</title>
<polygon fill="#ffffb3" stroke="black" points="807.76,-122 686.24,-122 686.24,-86 807.76,-86 807.76,-122"/>
<text text-anchor="middle" x="747" y="-99.8" font-family="Times,serif" font-size="14.00">BannerComponent</text>
</g>
<!-- BannerComponent&#45;&gt;AppModule -->
<g id="edge3" class="edge">
<title>BannerComponent&#45;&gt;AppModule</title>
<path fill="none" stroke="black" d="M747,-122.03C747,-138.4 747,-160 747,-160 747,-160 589.79,-160 589.79,-160"/>
<polygon fill="black" stroke="black" points="589.79,-156.5 579.79,-160 589.79,-163.5 589.79,-156.5"/>
</g>
<!-- HomeComponent -->
<g id="node4" class="node">
<title>HomeComponent</title>
<polygon fill="#ffffb3" stroke="black" points="667.55,-122 552.45,-122 552.45,-86 667.55,-86 667.55,-122"/>
<text text-anchor="middle" x="610" y="-99.8" font-family="Times,serif" font-size="14.00">HomeComponent</text>
</g>
<!-- HomeComponent&#45;&gt;AppModule -->
<g id="edge4" class="edge">
<title>HomeComponent&#45;&gt;AppModule</title>
<path fill="none" stroke="black" d="M566.03,-122.11C566.03,-122.11 566.03,-140.99 566.03,-140.99"/>
<polygon fill="black" stroke="black" points="562.53,-140.99 566.03,-150.99 569.53,-140.99 562.53,-140.99"/>
</g>
<!-- OverviewComponent -->
<g id="node5" class="node">
<title>OverviewComponent</title>
<polygon fill="#ffffb3" stroke="black" points="534.03,-122 397.97,-122 397.97,-86 534.03,-86 534.03,-122"/>
<text text-anchor="middle" x="466" y="-99.8" font-family="Times,serif" font-size="14.00">OverviewComponent</text>
</g>
<!-- OverviewComponent&#45;&gt;AppModule -->
<g id="edge5" class="edge">
<title>OverviewComponent&#45;&gt;AppModule</title>
<path fill="none" stroke="black" d="M515.22,-122.11C515.22,-122.11 515.22,-140.99 515.22,-140.99"/>
<polygon fill="black" stroke="black" points="511.72,-140.99 515.22,-150.99 518.72,-140.99 511.72,-140.99"/>
</g>
<!-- AppComponent  -->
<g id="node10" class="node">
<title>AppComponent </title>
<polygon fill="#80b1d3" stroke="black" points="592.44,-252 483.56,-252 483.56,-216 592.44,-216 592.44,-252"/>
<text text-anchor="middle" x="538" y="-229.8" font-family="Times,serif" font-size="14.00">AppComponent </text>
</g>
<!-- AppModule&#45;&gt;AppComponent  -->
<g id="edge9" class="edge">
<title>AppModule&#45;&gt;AppComponent </title>
<path fill="none" stroke="black" stroke-dasharray="1,5" d="M538,-187.11C538,-187.11 538,-205.99 538,-205.99"/>
<polygon fill="black" stroke="black" points="534.5,-205.99 538,-215.99 541.5,-205.99 534.5,-205.99"/>
</g>
<!-- AppRoutingModule -->
<g id="node7" class="node">
<title>AppRoutingModule</title>
<polygon fill="#8dd3c7" stroke="black" points="374.27,-122 371.27,-126 350.27,-126 347.27,-122 245.73,-122 245.73,-86 374.27,-86 374.27,-122"/>
<text text-anchor="middle" x="310" y="-99.8" font-family="Times,serif" font-size="14.00">AppRoutingModule</text>
</g>
<!-- AppRoutingModule&#45;&gt;AppModule -->
<g id="edge6" class="edge">
<title>AppRoutingModule&#45;&gt;AppModule</title>
<path fill="none" stroke="black" d="M310,-122.03C310,-138.4 310,-160 310,-160 310,-160 486.18,-160 486.18,-160"/>
<polygon fill="black" stroke="black" points="486.18,-163.5 496.18,-160 486.18,-156.5 486.18,-163.5"/>
</g>
<!-- CoreModule -->
<g id="node8" class="node">
<title>CoreModule</title>
<polygon fill="#8dd3c7" stroke="black" points="227.26,-122 224.26,-126 203.26,-126 200.26,-122 140.74,-122 140.74,-86 227.26,-86 227.26,-122"/>
<text text-anchor="middle" x="184" y="-99.8" font-family="Times,serif" font-size="14.00">CoreModule</text>
</g>
<!-- CoreModule&#45;&gt;AppModule -->
<g id="edge7" class="edge">
<title>CoreModule&#45;&gt;AppModule</title>
<path fill="none" stroke="black" d="M184,-122.11C184,-141.34 184,-169 184,-169 184,-169 486,-169 486,-169"/>
<polygon fill="black" stroke="black" points="486,-172.5 496,-169 486,-165.5 486,-172.5"/>
</g>
<!-- SharedModule -->
<g id="node9" class="node">
<title>SharedModule</title>
<polygon fill="#8dd3c7" stroke="black" points="122.42,-122 119.42,-126 98.42,-126 95.42,-122 23.58,-122 23.58,-86 122.42,-86 122.42,-122"/>
<text text-anchor="middle" x="73" y="-99.8" font-family="Times,serif" font-size="14.00">SharedModule</text>
</g>
<!-- SharedModule&#45;&gt;AppModule -->
<g id="edge8" class="edge">
<title>SharedModule&#45;&gt;AppModule</title>
<path fill="none" stroke="black" d="M73,-122.29C73,-144.21 73,-178 73,-178 73,-178 486.33,-178 486.33,-178"/>
<polygon fill="black" stroke="black" points="486.33,-181.5 496.33,-178 486.33,-174.5 486.33,-181.5"/>
</g>
</g>
</svg>
