<?xml version="1.0" encoding="UTF-8" standalone="no"?>
<!DOCTYPE svg PUBLIC "-//W3C//DTD SVG 1.1//EN"
 "http://www.w3.org/Graphics/SVG/1.1/DTD/svg11.dtd">
<!-- Generated by graphviz version 2.47.0 (20210316.0004)
 -->
<!-- Title: dependencies Pages: 1 -->
<svg width="1098pt" height="284pt"
 viewBox="0.00 0.00 1098.00 284.00" xmlns="http://www.w3.org/2000/svg" xmlns:xlink="http://www.w3.org/1999/xlink">
<g id="graph0" class="graph" transform="scale(1 1) rotate(0) translate(4 280)">
<title>dependencies</title>
<polygon fill="white" stroke="transparent" points="-4,4 -4,-280 1094,-280 1094,4 -4,4"/>
<text text-anchor="start" x="524.01" y="-42.4" font-family="sans-serif" font-weight="bold" font-size="14.00">Legend</text>
<polygon fill="#ffffb3" stroke="transparent" points="311,-10 311,-30 331,-30 331,-10 311,-10"/>
<text text-anchor="start" x="334.63" y="-15.4" font-family="sans-serif" font-size="14.00"> &#160;Declarations</text>
<polygon fill="#8dd3c7" stroke="transparent" points="424,-10 424,-30 444,-30 444,-10 424,-10"/>
<text text-anchor="start" x="447.73" y="-15.4" font-family="sans-serif" font-size="14.00"> &#160;Module</text>
<polygon fill="#80b1d3" stroke="transparent" points="510,-10 510,-30 530,-30 530,-10 510,-10"/>
<text text-anchor="start" x="533.78" y="-15.4" font-family="sans-serif" font-size="14.00"> &#160;Bootstrap</text>
<polygon fill="#fdb462" stroke="transparent" points="607,-10 607,-30 627,-30 627,-10 607,-10"/>
<text text-anchor="start" x="630.67" y="-15.4" font-family="sans-serif" font-size="14.00"> &#160;Providers</text>
<polygon fill="#fb8072" stroke="transparent" points="703,-10 703,-30 723,-30 723,-10 703,-10"/>
<text text-anchor="start" x="726.73" y="-15.4" font-family="sans-serif" font-size="14.00"> &#160;Exports</text>
<g id="clust1" class="cluster">
<title>cluster_AppModule</title>
<polygon fill="none" stroke="black" stroke-dasharray="1,5" points="8,-70 8,-268 1082,-268 1082,-70 8,-70"/>
</g>
<g id="clust10" class="cluster">
<title>cluster_AppModule_bootstrap</title>
<polygon fill="none" stroke="black" points="507,-208 507,-260 631,-260 631,-208 507,-208"/>
</g>
<g id="clust8" class="cluster">
<title>cluster_AppModule_imports</title>
<polygon fill="none" stroke="black" points="708,-78 708,-130 1074,-130 1074,-78 708,-78"/>
</g>
<g id="clust2" class="cluster">
<title>cluster_AppModule_declarations</title>
<polygon fill="none" stroke="black" points="16,-78 16,-130 700,-130 700,-78 16,-78"/>
</g>
<!-- AboutComponent -->
<g id="node1" class="node">
<title>AboutComponent</title>
<polygon fill="#ffffb3" stroke="black" points="692.33,-122 575.67,-122 575.67,-86 692.33,-86 692.33,-122"/>
<text text-anchor="middle" x="634" y="-99.8" font-family="Times,serif" font-size="14.00">AboutComponent</text>
</g>
<!-- AppModule -->
<g id="node6" class="node">
<title>AppModule</title>
<polygon fill="#8dd3c7" stroke="black" points="610.66,-187 607.66,-191 586.66,-191 583.66,-187 527.34,-187 527.34,-151 610.66,-151 610.66,-187"/>
<text text-anchor="middle" x="569" y="-164.8" font-family="Times,serif" font-size="14.00">AppModule</text>
</g>
<!-- AboutComponent&#45;&gt;AppModule -->
<g id="edge1" class="edge">
<title>AboutComponent&#45;&gt;AppModule</title>
<path fill="none" stroke="black" d="M593.33,-122.11C593.33,-122.11 593.33,-140.99 593.33,-140.99"/>
<polygon fill="black" stroke="black" points="589.83,-140.99 593.33,-150.99 596.83,-140.99 589.83,-140.99"/>
</g>
<!-- AppComponent -->
<g id="node2" class="node">
<title>AppComponent</title>
<polygon fill="#ffffb3" stroke="black" points="557.94,-122 452.06,-122 452.06,-86 557.94,-86 557.94,-122"/>
<text text-anchor="middle" x="505" y="-99.8" font-family="Times,serif" font-size="14.00">AppComponent</text>
</g>
<!-- AppComponent&#45;&gt;AppModule -->
<g id="edge2" class="edge">
<title>AppComponent&#45;&gt;AppModule</title>
<path fill="none" stroke="black" d="M542.45,-122.11C542.45,-122.11 542.45,-140.99 542.45,-140.99"/>
<polygon fill="black" stroke="black" points="538.95,-140.99 542.45,-150.99 545.95,-140.99 538.95,-140.99"/>
</g>
<!-- BannerComponent -->
<g id="node3" class="node">
<title>BannerComponent</title>
<polygon fill="#ffffb3" stroke="black" points="433.76,-122 312.24,-122 312.24,-86 433.76,-86 433.76,-122"/>
<text text-anchor="middle" x="373" y="-99.8" font-family="Times,serif" font-size="14.00">BannerComponent</text>
</g>
<!-- BannerComponent&#45;&gt;AppModule -->
<g id="edge3" class="edge">
<title>BannerComponent&#45;&gt;AppModule</title>
<path fill="none" stroke="black" d="M373,-122.03C373,-138.4 373,-160 373,-160 373,-160 516.95,-160 516.95,-160"/>
<polygon fill="black" stroke="black" points="516.95,-163.5 526.95,-160 516.95,-156.5 516.95,-163.5"/>
</g>
<!-- HomeComponent -->
<g id="node4" class="node">
<title>HomeComponent</title>
<polygon fill="#ffffb3" stroke="black" points="293.55,-122 178.45,-122 178.45,-86 293.55,-86 293.55,-122"/>
<text text-anchor="middle" x="236" y="-99.8" font-family="Times,serif" font-size="14.00">HomeComponent</text>
</g>
<!-- HomeComponent&#45;&gt;AppModule -->
<g id="edge4" class="edge">
<title>HomeComponent&#45;&gt;AppModule</title>
<path fill="none" stroke="black" d="M236,-122.11C236,-141.34 236,-169 236,-169 236,-169 517.16,-169 517.16,-169"/>
<polygon fill="black" stroke="black" points="517.16,-172.5 527.16,-169 517.16,-165.5 517.16,-172.5"/>
</g>
<!-- OverviewComponent -->
<g id="node5" class="node">
<title>OverviewComponent</title>
<polygon fill="#ffffb3" stroke="black" points="160.03,-122 23.97,-122 23.97,-86 160.03,-86 160.03,-122"/>
<text text-anchor="middle" x="92" y="-99.8" font-family="Times,serif" font-size="14.00">OverviewComponent</text>
</g>
<!-- OverviewComponent&#45;&gt;AppModule -->
<g id="edge5" class="edge">
<title>OverviewComponent&#45;&gt;AppModule</title>
<path fill="none" stroke="black" d="M92,-122.29C92,-144.21 92,-178 92,-178 92,-178 517.09,-178 517.09,-178"/>
<polygon fill="black" stroke="black" points="517.09,-181.5 527.09,-178 517.09,-174.5 517.09,-181.5"/>
</g>
<!-- AppComponent  -->
<g id="node10" class="node">
<title>AppComponent </title>
<polygon fill="#80b1d3" stroke="black" points="623.44,-252 514.56,-252 514.56,-216 623.44,-216 623.44,-252"/>
<text text-anchor="middle" x="569" y="-229.8" font-family="Times,serif" font-size="14.00">AppComponent </text>
</g>
<!-- AppModule&#45;&gt;AppComponent  -->
<g id="edge9" class="edge">
<title>AppModule&#45;&gt;AppComponent </title>
<path fill="none" stroke="black" stroke-dasharray="1,5" d="M569,-187.11C569,-187.11 569,-205.99 569,-205.99"/>
<polygon fill="black" stroke="black" points="565.5,-205.99 569,-215.99 572.5,-205.99 565.5,-205.99"/>
</g>
<!-- AppRoutingModule -->
<g id="node7" class="node">
<title>AppRoutingModule</title>
<polygon fill="#8dd3c7" stroke="black" points="1066.27,-122 1063.27,-126 1042.27,-126 1039.27,-122 937.73,-122 937.73,-86 1066.27,-86 1066.27,-122"/>
<text text-anchor="middle" x="1002" y="-99.8" font-family="Times,serif" font-size="14.00">AppRoutingModule</text>
</g>
<!-- AppRoutingModule&#45;&gt;AppModule -->
<g id="edge6" class="edge">
<title>AppRoutingModule&#45;&gt;AppModule</title>
<path fill="none" stroke="black" d="M1002,-122.29C1002,-144.21 1002,-178 1002,-178 1002,-178 620.91,-178 620.91,-178"/>
<polygon fill="black" stroke="black" points="620.91,-174.5 610.91,-178 620.91,-181.5 620.91,-174.5"/>
</g>
<!-- CoreModule -->
<g id="node8" class="node">
<title>CoreModule</title>
<polygon fill="#8dd3c7" stroke="black" points="919.26,-122 916.26,-126 895.26,-126 892.26,-122 832.74,-122 832.74,-86 919.26,-86 919.26,-122"/>
<text text-anchor="middle" x="876" y="-99.8" font-family="Times,serif" font-size="14.00">CoreModule</text>
</g>
<!-- CoreModule&#45;&gt;AppModule -->
<g id="edge7" class="edge">
<title>CoreModule&#45;&gt;AppModule</title>
<path fill="none" stroke="black" d="M876,-122.11C876,-141.34 876,-169 876,-169 876,-169 620.72,-169 620.72,-169"/>
<polygon fill="black" stroke="black" points="620.72,-165.5 610.72,-169 620.72,-172.5 620.72,-165.5"/>
</g>
<!-- SharedModule -->
<g id="node9" class="node">
<title>SharedModule</title>
<polygon fill="#8dd3c7" stroke="black" points="814.42,-122 811.42,-126 790.42,-126 787.42,-122 715.58,-122 715.58,-86 814.42,-86 814.42,-122"/>
<text text-anchor="middle" x="765" y="-99.8" font-family="Times,serif" font-size="14.00">SharedModule</text>
</g>
<!-- SharedModule&#45;&gt;AppModule -->
<g id="edge8" class="edge">
<title>SharedModule&#45;&gt;AppModule</title>
<path fill="none" stroke="black" d="M765,-122.03C765,-138.4 765,-160 765,-160 765,-160 621.05,-160 621.05,-160"/>
<polygon fill="black" stroke="black" points="621.05,-156.5 611.05,-160 621.05,-163.5 621.05,-156.5"/>
</g>
</g>
</svg>
