<?xml version="1.0" encoding="UTF-8" standalone="no"?>
<!DOCTYPE svg PUBLIC "-//W3C//DTD SVG 1.1//EN"
 "http://www.w3.org/Graphics/SVG/1.1/DTD/svg11.dtd">
<!-- Generated by graphviz version 2.47.3 (20210619.1520)
 -->
<!-- Title: dependencies Pages: 1 -->
<svg width="629pt" height="174pt"
 viewBox="0.00 0.00 629.00 173.80" xmlns="http://www.w3.org/2000/svg" xmlns:xlink="http://www.w3.org/1999/xlink">
<g id="graph0" class="graph" transform="scale(1 1) rotate(0) translate(4 169.8)">
<title>dependencies</title>
<polygon fill="white" stroke="transparent" points="-4,4 -4,-169.8 625,-169.8 625,4 -4,4"/>
<text text-anchor="middle" x="310.5" y="-8.2" font-family="sans-serif" font-size="14.00">dependencies</text>
<g id="clust1" class="cluster">
<title>cluster_CoreModule</title>
<polygon fill="none" stroke="black" stroke-dasharray="1,5" points="8,-32.8 8,-157.8 613,-157.8 613,-32.8 8,-32.8"/>
</g>
<g id="clust6" class="cluster">
<title>cluster_CoreModule_providers</title>
<polygon fill="none" stroke="black" points="16,-40.8 16,-92.8 605,-92.8 605,-40.8 16,-40.8"/>
</g>
<!-- AppConfigService -->
<g id="node1" class="node">
<title>AppConfigService</title>
<ellipse fill="#fdb462" stroke="black" cx="514" cy="-66.8" rx="83.39" ry="18"/>
<text text-anchor="middle" x="514" y="-62.6" font-family="Times,serif" font-size="14.00">AppConfigService</text>
</g>
<!-- CoreModule -->
<g id="node4" class="node">
<title>CoreModule</title>
<polygon fill="#8dd3c7" stroke="black" points="365.26,-149.8 362.26,-153.8 341.26,-153.8 338.26,-149.8 278.74,-149.8 278.74,-113.8 365.26,-113.8 365.26,-149.8"/>
<text text-anchor="middle" x="322" y="-127.6" font-family="Times,serif" font-size="14.00">CoreModule</text>
</g>
<!-- AppConfigService&#45;&gt;CoreModule -->
<g id="edge1" class="edge">
<title>AppConfigService&#45;&gt;CoreModule</title>
<path fill="none" stroke="black" d="M514,-84.91C514,-104.14 514,-131.8 514,-131.8 514,-131.8 375.57,-131.8 375.57,-131.8"/>
<polygon fill="black" stroke="black" points="375.57,-128.3 365.57,-131.8 375.57,-135.3 375.57,-128.3"/>
</g>
<!-- LogoLocatorService -->
<g id="node2" class="node">
<title>LogoLocatorService</title>
<ellipse fill="#fdb462" stroke="black" cx="322" cy="-66.8" rx="90.31" ry="18"/>
<text text-anchor="middle" x="322" y="-62.6" font-family="Times,serif" font-size="14.00">LogoLocatorService</text>
</g>
<!-- LogoLocatorService&#45;&gt;CoreModule -->
<g id="edge2" class="edge">
<title>LogoLocatorService&#45;&gt;CoreModule</title>
<path fill="none" stroke="black" d="M322,-84.91C322,-84.91 322,-103.79 322,-103.79"/>
<polygon fill="black" stroke="black" points="318.5,-103.79 322,-113.79 325.5,-103.79 318.5,-103.79"/>
</g>
<!-- RandomColorService -->
<g id="node3" class="node">
<title>RandomColorService</title>
<ellipse fill="#fdb462" stroke="black" cx="119" cy="-66.8" rx="94.92" ry="18"/>
<text text-anchor="middle" x="119" y="-62.6" font-family="Times,serif" font-size="14.00">RandomColorService</text>
</g>
<!-- RandomColorService&#45;&gt;CoreModule -->
<g id="edge3" class="edge">
<title>RandomColorService&#45;&gt;CoreModule</title>
<path fill="none" stroke="black" d="M119,-84.91C119,-104.14 119,-131.8 119,-131.8 119,-131.8 268.45,-131.8 268.45,-131.8"/>
<polygon fill="black" stroke="black" points="268.45,-135.3 278.45,-131.8 268.45,-128.3 268.45,-135.3"/>
</g>
</g>
</svg>
