<?xml version="1.0" encoding="UTF-8" standalone="no"?>
<!DOCTYPE svg PUBLIC "-//W3C//DTD SVG 1.1//EN"
 "http://www.w3.org/Graphics/SVG/1.1/DTD/svg11.dtd">
<!-- Generated by graphviz version 2.47.3 (20210619.1520)
 -->
<!-- Title: dependencies Pages: 1 -->
<svg width="764pt" height="174pt"
 viewBox="0.00 0.00 764.00 173.80" xmlns="http://www.w3.org/2000/svg" xmlns:xlink="http://www.w3.org/1999/xlink">
<g id="graph0" class="graph" transform="scale(1 1) rotate(0) translate(4 169.8)">
<title>dependencies</title>
<polygon fill="white" stroke="transparent" points="-4,4 -4,-169.8 760,-169.8 760,4 -4,4"/>
<text text-anchor="middle" x="378" y="-8.2" font-family="sans-serif" font-size="14.00">dependencies</text>
<g id="clust1" class="cluster">
<title>cluster_CoreModule</title>
<polygon fill="none" stroke="black" stroke-dasharray="1,5" points="8,-32.8 8,-157.8 748,-157.8 748,-32.8 8,-32.8"/>
</g>
<g id="clust6" class="cluster">
<title>cluster_CoreModule_providers</title>
<polygon fill="none" stroke="black" points="16,-40.8 16,-92.8 740,-92.8 740,-40.8 16,-40.8"/>
</g>
<!-- AppConfigService -->
<g id="node1" class="node">
<title>AppConfigService</title>
<ellipse fill="#fdb462" stroke="black" cx="649" cy="-66.8" rx="83.39" ry="18"/>
<text text-anchor="middle" x="649" y="-62.6" font-family="Times,serif" font-size="14.00">AppConfigService</text>
</g>
<!-- CoreModule -->
<g id="node5" class="node">
<title>CoreModule</title>
<polygon fill="#8dd3c7" stroke="black" points="448.26,-149.8 445.26,-153.8 424.26,-153.8 421.26,-149.8 361.74,-149.8 361.74,-113.8 448.26,-113.8 448.26,-149.8"/>
<text text-anchor="middle" x="405" y="-127.6" font-family="Times,serif" font-size="14.00">CoreModule</text>
</g>
<!-- AppConfigService&#45;&gt;CoreModule -->
<g id="edge1" class="edge">
<title>AppConfigService&#45;&gt;CoreModule</title>
<path fill="none" stroke="black" d="M649,-84.91C649,-104.14 649,-131.8 649,-131.8 649,-131.8 458.34,-131.8 458.34,-131.8"/>
<polygon fill="black" stroke="black" points="458.34,-128.3 448.34,-131.8 458.34,-135.3 458.34,-128.3"/>
</g>
<!-- DataService -->
<g id="node2" class="node">
<title>DataService</title>
<ellipse fill="#fdb462" stroke="black" cx="489" cy="-66.8" rx="58.44" ry="18"/>
<text text-anchor="middle" x="489" y="-62.6" font-family="Times,serif" font-size="14.00">DataService</text>
</g>
<!-- DataService&#45;&gt;CoreModule -->
<g id="edge2" class="edge">
<title>DataService&#45;&gt;CoreModule</title>
<path fill="none" stroke="black" d="M439.58,-76.39C439.58,-76.39 439.58,-103.55 439.58,-103.55"/>
<polygon fill="black" stroke="black" points="436.08,-103.55 439.58,-113.55 443.08,-103.55 436.08,-103.55"/>
</g>
<!-- LogoLocatorService -->
<g id="node3" class="node">
<title>LogoLocatorService</title>
<ellipse fill="#fdb462" stroke="black" cx="322" cy="-66.8" rx="90.31" ry="18"/>
<text text-anchor="middle" x="322" y="-62.6" font-family="Times,serif" font-size="14.00">LogoLocatorService</text>
</g>
<!-- LogoLocatorService&#45;&gt;CoreModule -->
<g id="edge3" class="edge">
<title>LogoLocatorService&#45;&gt;CoreModule</title>
<path fill="none" stroke="black" d="M387.01,-79.33C387.01,-79.33 387.01,-103.65 387.01,-103.65"/>
<polygon fill="black" stroke="black" points="383.51,-103.65 387.01,-113.65 390.51,-103.65 383.51,-103.65"/>
</g>
<!-- RandomColorService -->
<g id="node4" class="node">
<title>RandomColorService</title>
<ellipse fill="#fdb462" stroke="black" cx="119" cy="-66.8" rx="94.92" ry="18"/>
<text text-anchor="middle" x="119" y="-62.6" font-family="Times,serif" font-size="14.00">RandomColorService</text>
</g>
<!-- RandomColorService&#45;&gt;CoreModule -->
<g id="edge4" class="edge">
<title>RandomColorService&#45;&gt;CoreModule</title>
<path fill="none" stroke="black" d="M119,-84.91C119,-104.14 119,-131.8 119,-131.8 119,-131.8 351.56,-131.8 351.56,-131.8"/>
<polygon fill="black" stroke="black" points="351.56,-135.3 361.56,-131.8 351.56,-128.3 351.56,-135.3"/>
</g>
</g>
</svg>
