<?xml version="1.0" encoding="UTF-8" standalone="no"?>
<!DOCTYPE svg PUBLIC "-//W3C//DTD SVG 1.1//EN"
 "http://www.w3.org/Graphics/SVG/1.1/DTD/svg11.dtd">
<!-- Generated by graphviz version 2.47.0 (20210316.0004)
 -->
<!-- Title: dependencies Pages: 1 -->
<svg width="764pt" height="211pt"
 viewBox="0.00 0.00 764.00 211.00" xmlns="http://www.w3.org/2000/svg" xmlns:xlink="http://www.w3.org/1999/xlink">
<g id="graph0" class="graph" transform="scale(1 1) rotate(0) translate(4 207)">
<title>dependencies</title>
<polygon fill="white" stroke="transparent" points="-4,4 -4,-207 760,-207 760,4 -4,4"/>
<text text-anchor="start" x="357.01" y="-42.4" font-family="sans-serif" font-weight="bold" font-size="14.00">Legend</text>
<polygon fill="#ffffb3" stroke="transparent" points="144,-10 144,-30 164,-30 164,-10 144,-10"/>
<text text-anchor="start" x="167.63" y="-15.4" font-family="sans-serif" font-size="14.00"> &#160;Declarations</text>
<polygon fill="#8dd3c7" stroke="transparent" points="257,-10 257,-30 277,-30 277,-10 257,-10"/>
<text text-anchor="start" x="280.73" y="-15.4" font-family="sans-serif" font-size="14.00"> &#160;Module</text>
<polygon fill="#80b1d3" stroke="transparent" points="343,-10 343,-30 363,-30 363,-10 343,-10"/>
<text text-anchor="start" x="366.78" y="-15.4" font-family="sans-serif" font-size="14.00"> &#160;Bootstrap</text>
<polygon fill="#fdb462" stroke="transparent" points="440,-10 440,-30 460,-30 460,-10 440,-10"/>
<text text-anchor="start" x="463.67" y="-15.4" font-family="sans-serif" font-size="14.00"> &#160;Providers</text>
<polygon fill="#fb8072" stroke="transparent" points="536,-10 536,-30 556,-30 556,-10 536,-10"/>
<text text-anchor="start" x="559.73" y="-15.4" font-family="sans-serif" font-size="14.00"> &#160;Exports</text>
<g id="clust1" class="cluster">
<title>cluster_CoreModule</title>
<polygon fill="none" stroke="black" stroke-dasharray="1,5" points="8,-70 8,-195 748,-195 748,-70 8,-70"/>
</g>
<g id="clust6" class="cluster">
<title>cluster_CoreModule_providers</title>
<polygon fill="none" stroke="black" points="16,-78 16,-130 740,-130 740,-78 16,-78"/>
</g>
<!-- AppConfigService -->
<g id="node1" class="node">
<title>AppConfigService</title>
<ellipse fill="#fdb462" stroke="black" cx="649" cy="-104" rx="83.39" ry="18"/>
<text text-anchor="middle" x="649" y="-99.8" font-family="Times,serif" font-size="14.00">AppConfigService</text>
</g>
<!-- CoreModule -->
<g id="node5" class="node">
<title>CoreModule</title>
<polygon fill="#8dd3c7" stroke="black" points="448.26,-187 445.26,-191 424.26,-191 421.26,-187 361.74,-187 361.74,-151 448.26,-151 448.26,-187"/>
<text text-anchor="middle" x="405" y="-164.8" font-family="Times,serif" font-size="14.00">CoreModule</text>
</g>
<!-- AppConfigService&#45;&gt;CoreModule -->
<g id="edge1" class="edge">
<title>AppConfigService&#45;&gt;CoreModule</title>
<path fill="none" stroke="black" d="M649,-122.11C649,-141.34 649,-169 649,-169 649,-169 458.34,-169 458.34,-169"/>
<polygon fill="black" stroke="black" points="458.34,-165.5 448.34,-169 458.34,-172.5 458.34,-165.5"/>
</g>
<!-- DataService -->
<g id="node2" class="node">
<title>DataService</title>
<ellipse fill="#fdb462" stroke="black" cx="489" cy="-104" rx="58.44" ry="18"/>
<text text-anchor="middle" x="489" y="-99.8" font-family="Times,serif" font-size="14.00">DataService</text>
</g>
<!-- DataService&#45;&gt;CoreModule -->
<g id="edge2" class="edge">
<title>DataService&#45;&gt;CoreModule</title>
<path fill="none" stroke="black" d="M439.58,-113.59C439.58,-113.59 439.58,-140.75 439.58,-140.75"/>
<polygon fill="black" stroke="black" points="436.08,-140.75 439.58,-150.75 443.08,-140.75 436.08,-140.75"/>
</g>
<!-- LogoLocatorService -->
<g id="node3" class="node">
<title>LogoLocatorService</title>
<ellipse fill="#fdb462" stroke="black" cx="322" cy="-104" rx="90.31" ry="18"/>
<text text-anchor="middle" x="322" y="-99.8" font-family="Times,serif" font-size="14.00">LogoLocatorService</text>
</g>
<!-- LogoLocatorService&#45;&gt;CoreModule -->
<g id="edge3" class="edge">
<title>LogoLocatorService&#45;&gt;CoreModule</title>
<path fill="none" stroke="black" d="M387.01,-116.53C387.01,-116.53 387.01,-140.85 387.01,-140.85"/>
<polygon fill="black" stroke="black" points="383.51,-140.85 387.01,-150.85 390.51,-140.85 383.51,-140.85"/>
</g>
<!-- RandomColorService -->
<g id="node4" class="node">
<title>RandomColorService</title>
<ellipse fill="#fdb462" stroke="black" cx="119" cy="-104" rx="94.92" ry="18"/>
<text text-anchor="middle" x="119" y="-99.8" font-family="Times,serif" font-size="14.00">RandomColorService</text>
</g>
<!-- RandomColorService&#45;&gt;CoreModule -->
<g id="edge4" class="edge">
<title>RandomColorService&#45;&gt;CoreModule</title>
<path fill="none" stroke="black" d="M119,-122.11C119,-141.34 119,-169 119,-169 119,-169 351.56,-169 351.56,-169"/>
<polygon fill="black" stroke="black" points="351.56,-172.5 361.56,-169 351.56,-165.5 351.56,-172.5"/>
</g>
</g>
</svg>
