<?xml version="1.0" encoding="UTF-8" standalone="no"?>
<!DOCTYPE svg PUBLIC "-//W3C//DTD SVG 1.1//EN"
 "http://www.w3.org/Graphics/SVG/1.1/DTD/svg11.dtd">
<!-- Generated by graphviz version 2.47.0 (20210316.0004)
 -->
<!-- Title: dependencies Pages: 1 -->
<svg width="1304pt" height="211pt"
 viewBox="0.00 0.00 1304.00 211.00" xmlns="http://www.w3.org/2000/svg" xmlns:xlink="http://www.w3.org/1999/xlink">
<g id="graph0" class="graph" transform="scale(1 1) rotate(0) translate(4 207)">
<title>dependencies</title>
<polygon fill="white" stroke="transparent" points="-4,4 -4,-207 1300,-207 1300,4 -4,4"/>
<text text-anchor="start" x="627.01" y="-42.4" font-family="sans-serif" font-weight="bold" font-size="14.00">Legend</text>
<polygon fill="#ffffb3" stroke="transparent" points="414,-10 414,-30 434,-30 434,-10 414,-10"/>
<text text-anchor="start" x="437.63" y="-15.4" font-family="sans-serif" font-size="14.00"> &#160;Declarations</text>
<polygon fill="#8dd3c7" stroke="transparent" points="527,-10 527,-30 547,-30 547,-10 527,-10"/>
<text text-anchor="start" x="550.73" y="-15.4" font-family="sans-serif" font-size="14.00"> &#160;Module</text>
<polygon fill="#80b1d3" stroke="transparent" points="613,-10 613,-30 633,-30 633,-10 613,-10"/>
<text text-anchor="start" x="636.78" y="-15.4" font-family="sans-serif" font-size="14.00"> &#160;Bootstrap</text>
<polygon fill="#fdb462" stroke="transparent" points="710,-10 710,-30 730,-30 730,-10 710,-10"/>
<text text-anchor="start" x="733.67" y="-15.4" font-family="sans-serif" font-size="14.00"> &#160;Providers</text>
<polygon fill="#fb8072" stroke="transparent" points="806,-10 806,-30 826,-30 826,-10 806,-10"/>
<text text-anchor="start" x="829.73" y="-15.4" font-family="sans-serif" font-size="14.00"> &#160;Exports</text>
<g id="clust1" class="cluster">
<title>cluster_TechnologiesModule</title>
<polygon fill="none" stroke="black" stroke-dasharray="1,5" points="8,-70 8,-195 1288,-195 1288,-70 8,-70"/>
</g>
<g id="clust8" class="cluster">
<title>cluster_TechnologiesModule_imports</title>
<polygon fill="none" stroke="black" points="968,-78 968,-130 1280,-130 1280,-78 968,-78"/>
</g>
<g id="clust2" class="cluster">
<title>cluster_TechnologiesModule_declarations</title>
<polygon fill="none" stroke="black" points="16,-78 16,-130 960,-130 960,-78 16,-78"/>
</g>
<!-- CriterionFilterComponent -->
<g id="node1" class="node">
<title>CriterionFilterComponent</title>
<polygon fill="#ffffb3" stroke="black" points="952.21,-122 789.79,-122 789.79,-86 952.21,-86 952.21,-122"/>
<text text-anchor="middle" x="871" y="-99.8" font-family="Times,serif" font-size="14.00">CriterionFilterComponent</text>
</g>
<!-- TechnologiesModule -->
<g id="node6" class="node">
<title>TechnologiesModule</title>
<polygon fill="#8dd3c7" stroke="black" points="761.47,-187 758.47,-191 737.47,-191 734.47,-187 626.53,-187 626.53,-151 761.47,-151 761.47,-187"/>
<text text-anchor="middle" x="694" y="-164.8" font-family="Times,serif" font-size="14.00">TechnologiesModule</text>
</g>
<!-- CriterionFilterComponent&#45;&gt;TechnologiesModule -->
<g id="edge1" class="edge">
<title>CriterionFilterComponent&#45;&gt;TechnologiesModule</title>
<path fill="none" stroke="black" d="M871,-122.03C871,-138.4 871,-160 871,-160 871,-160 771.67,-160 771.67,-160"/>
<polygon fill="black" stroke="black" points="771.67,-156.5 761.67,-160 771.67,-163.5 771.67,-156.5"/>
</g>
<!-- TechnologiesComponent -->
<g id="node2" class="node">
<title>TechnologiesComponent</title>
<polygon fill="#ffffb3" stroke="black" points="772.25,-122 615.75,-122 615.75,-86 772.25,-86 772.25,-122"/>
<text text-anchor="middle" x="694" y="-99.8" font-family="Times,serif" font-size="14.00">TechnologiesComponent</text>
</g>
<!-- TechnologiesComponent&#45;&gt;TechnologiesModule -->
<g id="edge2" class="edge">
<title>TechnologiesComponent&#45;&gt;TechnologiesModule</title>
<path fill="none" stroke="black" d="M694,-122.11C694,-122.11 694,-140.99 694,-140.99"/>
<polygon fill="black" stroke="black" points="690.5,-140.99 694,-150.99 697.5,-140.99 690.5,-140.99"/>
</g>
<!-- TechnologyDetailsComponent -->
<g id="node3" class="node">
<title>TechnologyDetailsComponent</title>
<polygon fill="#ffffb3" stroke="black" points="597.86,-122 410.14,-122 410.14,-86 597.86,-86 597.86,-122"/>
<text text-anchor="middle" x="504" y="-99.8" font-family="Times,serif" font-size="14.00">TechnologyDetailsComponent</text>
</g>
<!-- TechnologyDetailsComponent&#45;&gt;TechnologiesModule -->
<g id="edge3" class="edge">
<title>TechnologyDetailsComponent&#45;&gt;TechnologiesModule</title>
<path fill="none" stroke="black" d="M504,-122.03C504,-138.4 504,-160 504,-160 504,-160 616.48,-160 616.48,-160"/>
<polygon fill="black" stroke="black" points="616.48,-163.5 626.48,-160 616.48,-156.5 616.48,-163.5"/>
</g>
<!-- TechnologyListComponent -->
<g id="node4" class="node">
<title>TechnologyListComponent</title>
<polygon fill="#ffffb3" stroke="black" points="391.98,-122 222.02,-122 222.02,-86 391.98,-86 391.98,-122"/>
<text text-anchor="middle" x="307" y="-99.8" font-family="Times,serif" font-size="14.00">TechnologyListComponent</text>
</g>
<!-- TechnologyListComponent&#45;&gt;TechnologiesModule -->
<g id="edge4" class="edge">
<title>TechnologyListComponent&#45;&gt;TechnologiesModule</title>
<path fill="none" stroke="black" d="M307,-122.11C307,-141.34 307,-169 307,-169 307,-169 616.15,-169 616.15,-169"/>
<polygon fill="black" stroke="black" points="616.15,-172.5 626.15,-169 616.15,-165.5 616.15,-172.5"/>
</g>
<!-- TechnologyTableComponent -->
<g id="node5" class="node">
<title>TechnologyTableComponent</title>
<polygon fill="#ffffb3" stroke="black" points="204.08,-122 23.92,-122 23.92,-86 204.08,-86 204.08,-122"/>
<text text-anchor="middle" x="114" y="-99.8" font-family="Times,serif" font-size="14.00">TechnologyTableComponent</text>
</g>
<!-- TechnologyTableComponent&#45;&gt;TechnologiesModule -->
<g id="edge5" class="edge">
<title>TechnologyTableComponent&#45;&gt;TechnologiesModule</title>
<path fill="none" stroke="black" d="M114,-122.29C114,-144.21 114,-178 114,-178 114,-178 616.33,-178 616.33,-178"/>
<polygon fill="black" stroke="black" points="616.33,-181.5 626.33,-178 616.33,-174.5 616.33,-181.5"/>
</g>
<!-- SharedModule -->
<g id="node7" class="node">
<title>SharedModule</title>
<polygon fill="#8dd3c7" stroke="black" points="1272.42,-122 1269.42,-126 1248.42,-126 1245.42,-122 1173.58,-122 1173.58,-86 1272.42,-86 1272.42,-122"/>
<text text-anchor="middle" x="1223" y="-99.8" font-family="Times,serif" font-size="14.00">SharedModule</text>
</g>
<!-- SharedModule&#45;&gt;TechnologiesModule -->
<g id="edge6" class="edge">
<title>SharedModule&#45;&gt;TechnologiesModule</title>
<path fill="none" stroke="black" d="M1223,-122.29C1223,-144.21 1223,-178 1223,-178 1223,-178 771.54,-178 771.54,-178"/>
<polygon fill="black" stroke="black" points="771.54,-174.5 761.54,-178 771.54,-181.5 771.54,-174.5"/>
</g>
<!-- TechnologiesRoutingModule -->
<g id="node8" class="node">
<title>TechnologiesRoutingModule</title>
<polygon fill="#8dd3c7" stroke="black" points="1156.09,-122 1153.09,-126 1132.09,-126 1129.09,-122 975.91,-122 975.91,-86 1156.09,-86 1156.09,-122"/>
<text text-anchor="middle" x="1066" y="-99.8" font-family="Times,serif" font-size="14.00">TechnologiesRoutingModule</text>
</g>
<!-- TechnologiesRoutingModule&#45;&gt;TechnologiesModule -->
<g id="edge7" class="edge">
<title>TechnologiesRoutingModule&#45;&gt;TechnologiesModule</title>
<path fill="none" stroke="black" d="M1066,-122.11C1066,-141.34 1066,-169 1066,-169 1066,-169 771.8,-169 771.8,-169"/>
<polygon fill="black" stroke="black" points="771.8,-165.5 761.8,-169 771.8,-172.5 771.8,-165.5"/>
</g>
</g>
</svg>
