<?xml version="1.0" encoding="UTF-8" standalone="no"?>
<!DOCTYPE svg PUBLIC "-//W3C//DTD SVG 1.1//EN"
 "http://www.w3.org/Graphics/SVG/1.1/DTD/svg11.dtd">
<!-- Generated by graphviz version 2.47.0 (20210316.0004)
 -->
<!-- Title: dependencies Pages: 1 -->
<svg width="1304pt" height="211pt"
 viewBox="0.00 0.00 1304.00 211.00" xmlns="http://www.w3.org/2000/svg" xmlns:xlink="http://www.w3.org/1999/xlink">
<g id="graph0" class="graph" transform="scale(1 1) rotate(0) translate(4 207)">
<title>dependencies</title>
<polygon fill="white" stroke="transparent" points="-4,4 -4,-207 1300,-207 1300,4 -4,4"/>
<text text-anchor="start" x="627.01" y="-42.4" font-family="sans-serif" font-weight="bold" font-size="14.00">Legend</text>
<polygon fill="#ffffb3" stroke="transparent" points="414,-10 414,-30 434,-30 434,-10 414,-10"/>
<text text-anchor="start" x="437.63" y="-15.4" font-family="sans-serif" font-size="14.00"> &#160;Declarations</text>
<polygon fill="#8dd3c7" stroke="transparent" points="527,-10 527,-30 547,-30 547,-10 527,-10"/>
<text text-anchor="start" x="550.73" y="-15.4" font-family="sans-serif" font-size="14.00"> &#160;Module</text>
<polygon fill="#80b1d3" stroke="transparent" points="613,-10 613,-30 633,-30 633,-10 613,-10"/>
<text text-anchor="start" x="636.78" y="-15.4" font-family="sans-serif" font-size="14.00"> &#160;Bootstrap</text>
<polygon fill="#fdb462" stroke="transparent" points="710,-10 710,-30 730,-30 730,-10 710,-10"/>
<text text-anchor="start" x="733.67" y="-15.4" font-family="sans-serif" font-size="14.00"> &#160;Providers</text>
<polygon fill="#fb8072" stroke="transparent" points="806,-10 806,-30 826,-30 826,-10 806,-10"/>
<text text-anchor="start" x="829.73" y="-15.4" font-family="sans-serif" font-size="14.00"> &#160;Exports</text>
<g id="clust1" class="cluster">
<title>cluster_TechnologiesModule</title>
<polygon fill="none" stroke="black" stroke-dasharray="1,5" points="8,-70 8,-195 1288,-195 1288,-70 8,-70"/>
</g>
<g id="clust2" class="cluster">
<title>cluster_TechnologiesModule_declarations</title>
<polygon fill="none" stroke="black" points="336,-78 336,-130 1280,-130 1280,-78 336,-78"/>
</g>
<g id="clust8" class="cluster">
<title>cluster_TechnologiesModule_imports</title>
<polygon fill="none" stroke="black" points="16,-78 16,-130 328,-130 328,-78 16,-78"/>
</g>
<!-- CriterionFilterComponent -->
<g id="node1" class="node">
<title>CriterionFilterComponent</title>
<polygon fill="#ffffb3" stroke="black" points="1272.21,-122 1109.79,-122 1109.79,-86 1272.21,-86 1272.21,-122"/>
<text text-anchor="middle" x="1191" y="-99.8" font-family="Times,serif" font-size="14.00">CriterionFilterComponent</text>
</g>
<!-- TechnologiesModule -->
<g id="node6" class="node">
<title>TechnologiesModule</title>
<polygon fill="#8dd3c7" stroke="black" points="694.47,-187 691.47,-191 670.47,-191 667.47,-187 559.53,-187 559.53,-151 694.47,-151 694.47,-187"/>
<text text-anchor="middle" x="627" y="-164.8" font-family="Times,serif" font-size="14.00">TechnologiesModule</text>
</g>
<!-- CriterionFilterComponent&#45;&gt;TechnologiesModule -->
<g id="edge1" class="edge">
<title>CriterionFilterComponent&#45;&gt;TechnologiesModule</title>
<path fill="none" stroke="black" d="M1191,-122.29C1191,-144.21 1191,-178 1191,-178 1191,-178 704.75,-178 704.75,-178"/>
<polygon fill="black" stroke="black" points="704.75,-174.5 694.75,-178 704.75,-181.5 704.75,-174.5"/>
</g>
<!-- TechnologiesComponent -->
<g id="node2" class="node">
<title>TechnologiesComponent</title>
<polygon fill="#ffffb3" stroke="black" points="1092.25,-122 935.75,-122 935.75,-86 1092.25,-86 1092.25,-122"/>
<text text-anchor="middle" x="1014" y="-99.8" font-family="Times,serif" font-size="14.00">TechnologiesComponent</text>
</g>
<!-- TechnologiesComponent&#45;&gt;TechnologiesModule -->
<g id="edge2" class="edge">
<title>TechnologiesComponent&#45;&gt;TechnologiesModule</title>
<path fill="none" stroke="black" d="M1014,-122.11C1014,-141.34 1014,-169 1014,-169 1014,-169 704.85,-169 704.85,-169"/>
<polygon fill="black" stroke="black" points="704.85,-165.5 694.85,-169 704.85,-172.5 704.85,-165.5"/>
</g>
<!-- TechnologyDetailsComponent -->
<g id="node3" class="node">
<title>TechnologyDetailsComponent</title>
<polygon fill="#ffffb3" stroke="black" points="917.86,-122 730.14,-122 730.14,-86 917.86,-86 917.86,-122"/>
<text text-anchor="middle" x="824" y="-99.8" font-family="Times,serif" font-size="14.00">TechnologyDetailsComponent</text>
</g>
<!-- TechnologyDetailsComponent&#45;&gt;TechnologiesModule -->
<g id="edge3" class="edge">
<title>TechnologyDetailsComponent&#45;&gt;TechnologiesModule</title>
<path fill="none" stroke="black" d="M824,-122.03C824,-138.4 824,-160 824,-160 824,-160 704.52,-160 704.52,-160"/>
<polygon fill="black" stroke="black" points="704.52,-156.5 694.52,-160 704.52,-163.5 704.52,-156.5"/>
</g>
<!-- TechnologyListComponent -->
<g id="node4" class="node">
<title>TechnologyListComponent</title>
<polygon fill="#ffffb3" stroke="black" points="711.98,-122 542.02,-122 542.02,-86 711.98,-86 711.98,-122"/>
<text text-anchor="middle" x="627" y="-99.8" font-family="Times,serif" font-size="14.00">TechnologyListComponent</text>
</g>
<!-- TechnologyListComponent&#45;&gt;TechnologiesModule -->
<g id="edge4" class="edge">
<title>TechnologyListComponent&#45;&gt;TechnologiesModule</title>
<path fill="none" stroke="black" d="M627,-122.11C627,-122.11 627,-140.99 627,-140.99"/>
<polygon fill="black" stroke="black" points="623.5,-140.99 627,-150.99 630.5,-140.99 623.5,-140.99"/>
</g>
<!-- TechnologyTableComponent -->
<g id="node5" class="node">
<title>TechnologyTableComponent</title>
<polygon fill="#ffffb3" stroke="black" points="524.08,-122 343.92,-122 343.92,-86 524.08,-86 524.08,-122"/>
<text text-anchor="middle" x="434" y="-99.8" font-family="Times,serif" font-size="14.00">TechnologyTableComponent</text>
</g>
<!-- TechnologyTableComponent&#45;&gt;TechnologiesModule -->
<g id="edge5" class="edge">
<title>TechnologyTableComponent&#45;&gt;TechnologiesModule</title>
<path fill="none" stroke="black" d="M434,-122.03C434,-138.4 434,-160 434,-160 434,-160 549.5,-160 549.5,-160"/>
<polygon fill="black" stroke="black" points="549.5,-163.5 559.5,-160 549.5,-156.5 549.5,-163.5"/>
</g>
<!-- SharedModule -->
<g id="node7" class="node">
<title>SharedModule</title>
<polygon fill="#8dd3c7" stroke="black" points="320.42,-122 317.42,-126 296.42,-126 293.42,-122 221.58,-122 221.58,-86 320.42,-86 320.42,-122"/>
<text text-anchor="middle" x="271" y="-99.8" font-family="Times,serif" font-size="14.00">SharedModule</text>
</g>
<!-- SharedModule&#45;&gt;TechnologiesModule -->
<g id="edge6" class="edge">
<title>SharedModule&#45;&gt;TechnologiesModule</title>
<path fill="none" stroke="black" d="M271,-122.11C271,-141.34 271,-169 271,-169 271,-169 549.2,-169 549.2,-169"/>
<polygon fill="black" stroke="black" points="549.2,-172.5 559.2,-169 549.2,-165.5 549.2,-172.5"/>
</g>
<!-- TechnologiesRoutingModule -->
<g id="node8" class="node">
<title>TechnologiesRoutingModule</title>
<polygon fill="#8dd3c7" stroke="black" points="204.09,-122 201.09,-126 180.09,-126 177.09,-122 23.91,-122 23.91,-86 204.09,-86 204.09,-122"/>
<text text-anchor="middle" x="114" y="-99.8" font-family="Times,serif" font-size="14.00">TechnologiesRoutingModule</text>
</g>
<!-- TechnologiesRoutingModule&#45;&gt;TechnologiesModule -->
<g id="edge7" class="edge">
<title>TechnologiesRoutingModule&#45;&gt;TechnologiesModule</title>
<path fill="none" stroke="black" d="M114,-122.29C114,-144.21 114,-178 114,-178 114,-178 549.41,-178 549.41,-178"/>
<polygon fill="black" stroke="black" points="549.41,-181.5 559.41,-178 549.41,-174.5 549.41,-181.5"/>
</g>
</g>
</svg>
