<?xml version="1.0" encoding="UTF-8" standalone="no"?>
<!DOCTYPE svg PUBLIC "-//W3C//DTD SVG 1.1//EN"
 "http://www.w3.org/Graphics/SVG/1.1/DTD/svg11.dtd">
<!-- Generated by graphviz version 2.47.3 (20210619.1520)
 -->
<!-- Title: dependencies Pages: 1 -->
<svg width="1304pt" height="174pt"
 viewBox="0.00 0.00 1304.00 173.80" xmlns="http://www.w3.org/2000/svg" xmlns:xlink="http://www.w3.org/1999/xlink">
<g id="graph0" class="graph" transform="scale(1 1) rotate(0) translate(4 169.8)">
<title>dependencies</title>
<polygon fill="white" stroke="transparent" points="-4,4 -4,-169.8 1300,-169.8 1300,4 -4,4"/>
<text text-anchor="middle" x="648" y="-8.2" font-family="sans-serif" font-size="14.00">dependencies</text>
<g id="clust1" class="cluster">
<title>cluster_TechnologiesModule</title>
<polygon fill="none" stroke="black" stroke-dasharray="1,5" points="8,-32.8 8,-157.8 1288,-157.8 1288,-32.8 8,-32.8"/>
</g>
<g id="clust2" class="cluster">
<title>cluster_TechnologiesModule_declarations</title>
<polygon fill="none" stroke="black" points="336,-40.8 336,-92.8 1280,-92.8 1280,-40.8 336,-40.8"/>
</g>
<g id="clust8" class="cluster">
<title>cluster_TechnologiesModule_imports</title>
<polygon fill="none" stroke="black" points="16,-40.8 16,-92.8 328,-92.8 328,-40.8 16,-40.8"/>
</g>
<!-- CriterionFilterComponent -->
<g id="node1" class="node">
<title>CriterionFilterComponent</title>
<polygon fill="#ffffb3" stroke="black" points="1272.21,-84.8 1109.79,-84.8 1109.79,-48.8 1272.21,-48.8 1272.21,-84.8"/>
<text text-anchor="middle" x="1191" y="-62.6" font-family="Times,serif" font-size="14.00">CriterionFilterComponent</text>
</g>
<!-- TechnologiesModule -->
<g id="node6" class="node">
<title>TechnologiesModule</title>
<polygon fill="#8dd3c7" stroke="black" points="694.47,-149.8 691.47,-153.8 670.47,-153.8 667.47,-149.8 559.53,-149.8 559.53,-113.8 694.47,-113.8 694.47,-149.8"/>
<text text-anchor="middle" x="627" y="-127.6" font-family="Times,serif" font-size="14.00">TechnologiesModule</text>
</g>
<!-- CriterionFilterComponent&#45;&gt;TechnologiesModule -->
<g id="edge1" class="edge">
<title>CriterionFilterComponent&#45;&gt;TechnologiesModule</title>
<path fill="none" stroke="black" d="M1191,-85.09C1191,-107.01 1191,-140.8 1191,-140.8 1191,-140.8 704.75,-140.8 704.75,-140.8"/>
<polygon fill="black" stroke="black" points="704.75,-137.3 694.75,-140.8 704.75,-144.3 704.75,-137.3"/>
</g>
<!-- TechnologiesComponent -->
<g id="node2" class="node">
<title>TechnologiesComponent</title>
<polygon fill="#ffffb3" stroke="black" points="1092.25,-84.8 935.75,-84.8 935.75,-48.8 1092.25,-48.8 1092.25,-84.8"/>
<text text-anchor="middle" x="1014" y="-62.6" font-family="Times,serif" font-size="14.00">TechnologiesComponent</text>
</g>
<!-- TechnologiesComponent&#45;&gt;TechnologiesModule -->
<g id="edge2" class="edge">
<title>TechnologiesComponent&#45;&gt;TechnologiesModule</title>
<path fill="none" stroke="black" d="M1014,-84.91C1014,-104.14 1014,-131.8 1014,-131.8 1014,-131.8 704.85,-131.8 704.85,-131.8"/>
<polygon fill="black" stroke="black" points="704.85,-128.3 694.85,-131.8 704.85,-135.3 704.85,-128.3"/>
</g>
<!-- TechnologyDetailsComponent -->
<g id="node3" class="node">
<title>TechnologyDetailsComponent</title>
<polygon fill="#ffffb3" stroke="black" points="917.86,-84.8 730.14,-84.8 730.14,-48.8 917.86,-48.8 917.86,-84.8"/>
<text text-anchor="middle" x="824" y="-62.6" font-family="Times,serif" font-size="14.00">TechnologyDetailsComponent</text>
</g>
<!-- TechnologyDetailsComponent&#45;&gt;TechnologiesModule -->
<g id="edge3" class="edge">
<title>TechnologyDetailsComponent&#45;&gt;TechnologiesModule</title>
<path fill="none" stroke="black" d="M824,-84.83C824,-101.2 824,-122.8 824,-122.8 824,-122.8 704.52,-122.8 704.52,-122.8"/>
<polygon fill="black" stroke="black" points="704.52,-119.3 694.52,-122.8 704.52,-126.3 704.52,-119.3"/>
</g>
<!-- TechnologyListComponent -->
<g id="node4" class="node">
<title>TechnologyListComponent</title>
<polygon fill="#ffffb3" stroke="black" points="711.98,-84.8 542.02,-84.8 542.02,-48.8 711.98,-48.8 711.98,-84.8"/>
<text text-anchor="middle" x="627" y="-62.6" font-family="Times,serif" font-size="14.00">TechnologyListComponent</text>
</g>
<!-- TechnologyListComponent&#45;&gt;TechnologiesModule -->
<g id="edge4" class="edge">
<title>TechnologyListComponent&#45;&gt;TechnologiesModule</title>
<path fill="none" stroke="black" d="M627,-84.91C627,-84.91 627,-103.79 627,-103.79"/>
<polygon fill="black" stroke="black" points="623.5,-103.79 627,-113.79 630.5,-103.79 623.5,-103.79"/>
</g>
<!-- TechnologyTableComponent -->
<g id="node5" class="node">
<title>TechnologyTableComponent</title>
<polygon fill="#ffffb3" stroke="black" points="524.08,-84.8 343.92,-84.8 343.92,-48.8 524.08,-48.8 524.08,-84.8"/>
<text text-anchor="middle" x="434" y="-62.6" font-family="Times,serif" font-size="14.00">TechnologyTableComponent</text>
</g>
<!-- TechnologyTableComponent&#45;&gt;TechnologiesModule -->
<g id="edge5" class="edge">
<title>TechnologyTableComponent&#45;&gt;TechnologiesModule</title>
<path fill="none" stroke="black" d="M434,-84.83C434,-101.2 434,-122.8 434,-122.8 434,-122.8 549.5,-122.8 549.5,-122.8"/>
<polygon fill="black" stroke="black" points="549.5,-126.3 559.5,-122.8 549.5,-119.3 549.5,-126.3"/>
</g>
<!-- SharedModule -->
<g id="node7" class="node">
<title>SharedModule</title>
<polygon fill="#8dd3c7" stroke="black" points="320.42,-84.8 317.42,-88.8 296.42,-88.8 293.42,-84.8 221.58,-84.8 221.58,-48.8 320.42,-48.8 320.42,-84.8"/>
<text text-anchor="middle" x="271" y="-62.6" font-family="Times,serif" font-size="14.00">SharedModule</text>
</g>
<!-- SharedModule&#45;&gt;TechnologiesModule -->
<g id="edge6" class="edge">
<title>SharedModule&#45;&gt;TechnologiesModule</title>
<path fill="none" stroke="black" d="M271,-84.91C271,-104.14 271,-131.8 271,-131.8 271,-131.8 549.2,-131.8 549.2,-131.8"/>
<polygon fill="black" stroke="black" points="549.2,-135.3 559.2,-131.8 549.2,-128.3 549.2,-135.3"/>
</g>
<!-- TechnologiesRoutingModule -->
<g id="node8" class="node">
<title>TechnologiesRoutingModule</title>
<polygon fill="#8dd3c7" stroke="black" points="204.09,-84.8 201.09,-88.8 180.09,-88.8 177.09,-84.8 23.91,-84.8 23.91,-48.8 204.09,-48.8 204.09,-84.8"/>
<text text-anchor="middle" x="114" y="-62.6" font-family="Times,serif" font-size="14.00">TechnologiesRoutingModule</text>
</g>
<!-- TechnologiesRoutingModule&#45;&gt;TechnologiesModule -->
<g id="edge7" class="edge">
<title>TechnologiesRoutingModule&#45;&gt;TechnologiesModule</title>
<path fill="none" stroke="black" d="M114,-85.09C114,-107.01 114,-140.8 114,-140.8 114,-140.8 549.41,-140.8 549.41,-140.8"/>
<polygon fill="black" stroke="black" points="549.41,-144.3 559.41,-140.8 549.41,-137.3 549.41,-144.3"/>
</g>
</g>
</svg>
