<?xml version="1.0" encoding="UTF-8" standalone="no"?>
<!DOCTYPE svg PUBLIC "-//W3C//DTD SVG 1.1//EN"
 "http://www.w3.org/Graphics/SVG/1.1/DTD/svg11.dtd">
<!-- Generated by graphviz version 2.47.3 (20210619.1520)
 -->
<!-- Title: dependencies Pages: 1 -->
<svg width="1304pt" height="174pt"
 viewBox="0.00 0.00 1304.00 173.80" xmlns="http://www.w3.org/2000/svg" xmlns:xlink="http://www.w3.org/1999/xlink">
<g id="graph0" class="graph" transform="scale(1 1) rotate(0) translate(4 169.8)">
<title>dependencies</title>
<polygon fill="white" stroke="transparent" points="-4,4 -4,-169.8 1300,-169.8 1300,4 -4,4"/>
<text text-anchor="middle" x="648" y="-8.2" font-family="sans-serif" font-size="14.00">dependencies</text>
<g id="clust1" class="cluster">
<title>cluster_TechnologiesModule</title>
<polygon fill="none" stroke="black" stroke-dasharray="1,5" points="8,-32.8 8,-157.8 1288,-157.8 1288,-32.8 8,-32.8"/>
</g>
<g id="clust8" class="cluster">
<title>cluster_TechnologiesModule_imports</title>
<polygon fill="none" stroke="black" points="968,-40.8 968,-92.8 1280,-92.8 1280,-40.8 968,-40.8"/>
</g>
<g id="clust2" class="cluster">
<title>cluster_TechnologiesModule_declarations</title>
<polygon fill="none" stroke="black" points="16,-40.8 16,-92.8 960,-92.8 960,-40.8 16,-40.8"/>
</g>
<!-- CriterionFilterComponent -->
<g id="node1" class="node">
<title>CriterionFilterComponent</title>
<polygon fill="#ffffb3" stroke="black" points="952.21,-84.8 789.79,-84.8 789.79,-48.8 952.21,-48.8 952.21,-84.8"/>
<text text-anchor="middle" x="871" y="-62.6" font-family="Times,serif" font-size="14.00">CriterionFilterComponent</text>
</g>
<!-- TechnologiesModule -->
<g id="node6" class="node">
<title>TechnologiesModule</title>
<polygon fill="#8dd3c7" stroke="black" points="761.47,-149.8 758.47,-153.8 737.47,-153.8 734.47,-149.8 626.53,-149.8 626.53,-113.8 761.47,-113.8 761.47,-149.8"/>
<text text-anchor="middle" x="694" y="-127.6" font-family="Times,serif" font-size="14.00">TechnologiesModule</text>
</g>
<!-- CriterionFilterComponent&#45;&gt;TechnologiesModule -->
<g id="edge1" class="edge">
<title>CriterionFilterComponent&#45;&gt;TechnologiesModule</title>
<path fill="none" stroke="black" d="M871,-84.83C871,-101.2 871,-122.8 871,-122.8 871,-122.8 771.67,-122.8 771.67,-122.8"/>
<polygon fill="black" stroke="black" points="771.67,-119.3 761.67,-122.8 771.67,-126.3 771.67,-119.3"/>
</g>
<!-- TechnologiesComponent -->
<g id="node2" class="node">
<title>TechnologiesComponent</title>
<polygon fill="#ffffb3" stroke="black" points="772.25,-84.8 615.75,-84.8 615.75,-48.8 772.25,-48.8 772.25,-84.8"/>
<text text-anchor="middle" x="694" y="-62.6" font-family="Times,serif" font-size="14.00">TechnologiesComponent</text>
</g>
<!-- TechnologiesComponent&#45;&gt;TechnologiesModule -->
<g id="edge2" class="edge">
<title>TechnologiesComponent&#45;&gt;TechnologiesModule</title>
<path fill="none" stroke="black" d="M694,-84.91C694,-84.91 694,-103.79 694,-103.79"/>
<polygon fill="black" stroke="black" points="690.5,-103.79 694,-113.79 697.5,-103.79 690.5,-103.79"/>
</g>
<!-- TechnologyDetailsComponent -->
<g id="node3" class="node">
<title>TechnologyDetailsComponent</title>
<polygon fill="#ffffb3" stroke="black" points="597.86,-84.8 410.14,-84.8 410.14,-48.8 597.86,-48.8 597.86,-84.8"/>
<text text-anchor="middle" x="504" y="-62.6" font-family="Times,serif" font-size="14.00">TechnologyDetailsComponent</text>
</g>
<!-- TechnologyDetailsComponent&#45;&gt;TechnologiesModule -->
<g id="edge3" class="edge">
<title>TechnologyDetailsComponent&#45;&gt;TechnologiesModule</title>
<path fill="none" stroke="black" d="M504,-84.83C504,-101.2 504,-122.8 504,-122.8 504,-122.8 616.48,-122.8 616.48,-122.8"/>
<polygon fill="black" stroke="black" points="616.48,-126.3 626.48,-122.8 616.48,-119.3 616.48,-126.3"/>
</g>
<!-- TechnologyListComponent -->
<g id="node4" class="node">
<title>TechnologyListComponent</title>
<polygon fill="#ffffb3" stroke="black" points="391.98,-84.8 222.02,-84.8 222.02,-48.8 391.98,-48.8 391.98,-84.8"/>
<text text-anchor="middle" x="307" y="-62.6" font-family="Times,serif" font-size="14.00">TechnologyListComponent</text>
</g>
<!-- TechnologyListComponent&#45;&gt;TechnologiesModule -->
<g id="edge4" class="edge">
<title>TechnologyListComponent&#45;&gt;TechnologiesModule</title>
<path fill="none" stroke="black" d="M307,-84.91C307,-104.14 307,-131.8 307,-131.8 307,-131.8 616.15,-131.8 616.15,-131.8"/>
<polygon fill="black" stroke="black" points="616.15,-135.3 626.15,-131.8 616.15,-128.3 616.15,-135.3"/>
</g>
<!-- TechnologyTableComponent -->
<g id="node5" class="node">
<title>TechnologyTableComponent</title>
<polygon fill="#ffffb3" stroke="black" points="204.08,-84.8 23.92,-84.8 23.92,-48.8 204.08,-48.8 204.08,-84.8"/>
<text text-anchor="middle" x="114" y="-62.6" font-family="Times,serif" font-size="14.00">TechnologyTableComponent</text>
</g>
<!-- TechnologyTableComponent&#45;&gt;TechnologiesModule -->
<g id="edge5" class="edge">
<title>TechnologyTableComponent&#45;&gt;TechnologiesModule</title>
<path fill="none" stroke="black" d="M114,-85.09C114,-107.01 114,-140.8 114,-140.8 114,-140.8 616.33,-140.8 616.33,-140.8"/>
<polygon fill="black" stroke="black" points="616.33,-144.3 626.33,-140.8 616.33,-137.3 616.33,-144.3"/>
</g>
<!-- SharedModule -->
<g id="node7" class="node">
<title>SharedModule</title>
<polygon fill="#8dd3c7" stroke="black" points="1272.42,-84.8 1269.42,-88.8 1248.42,-88.8 1245.42,-84.8 1173.58,-84.8 1173.58,-48.8 1272.42,-48.8 1272.42,-84.8"/>
<text text-anchor="middle" x="1223" y="-62.6" font-family="Times,serif" font-size="14.00">SharedModule</text>
</g>
<!-- SharedModule&#45;&gt;TechnologiesModule -->
<g id="edge6" class="edge">
<title>SharedModule&#45;&gt;TechnologiesModule</title>
<path fill="none" stroke="black" d="M1223,-85.09C1223,-107.01 1223,-140.8 1223,-140.8 1223,-140.8 771.54,-140.8 771.54,-140.8"/>
<polygon fill="black" stroke="black" points="771.54,-137.3 761.54,-140.8 771.54,-144.3 771.54,-137.3"/>
</g>
<!-- TechnologiesRoutingModule -->
<g id="node8" class="node">
<title>TechnologiesRoutingModule</title>
<polygon fill="#8dd3c7" stroke="black" points="1156.09,-84.8 1153.09,-88.8 1132.09,-88.8 1129.09,-84.8 975.91,-84.8 975.91,-48.8 1156.09,-48.8 1156.09,-84.8"/>
<text text-anchor="middle" x="1066" y="-62.6" font-family="Times,serif" font-size="14.00">TechnologiesRoutingModule</text>
</g>
<!-- TechnologiesRoutingModule&#45;&gt;TechnologiesModule -->
<g id="edge7" class="edge">
<title>TechnologiesRoutingModule&#45;&gt;TechnologiesModule</title>
<path fill="none" stroke="black" d="M1066,-84.91C1066,-104.14 1066,-131.8 1066,-131.8 1066,-131.8 771.8,-131.8 771.8,-131.8"/>
<polygon fill="black" stroke="black" points="771.8,-128.3 761.8,-131.8 771.8,-135.3 771.8,-128.3"/>
</g>
</g>
</svg>
